<?xml version="1.0" encoding="UTF-8" standalone="no"?>
<!DOCTYPE svg PUBLIC "-//W3C//DTD SVG 1.1//EN"
 "http://www.w3.org/Graphics/SVG/1.1/DTD/svg11.dtd">
<!-- Generated by graphviz version 2.38.0 (20140413.2041)
 -->
<!-- Title: %3 Pages: 1 -->
<svg width="720pt" height="404pt"
 viewBox="0.00 0.00 720.23 404.00" xmlns="http://www.w3.org/2000/svg" xmlns:xlink="http://www.w3.org/1999/xlink">
<g id="graph0" class="graph" transform="scale(1 1) rotate(0) translate(4 400)">
<title>%3</title>
<polygon fill="white" stroke="none" points="-4,4 -4,-400 716.225,-400 716.225,4 -4,4"/>
<!-- rule -->
<g id="node1" class="node"><title>rule</title>
<ellipse fill="none" stroke="black" cx="243.537" cy="-378" rx="27" ry="18"/>
<text text-anchor="middle" x="243.537" y="-374.3" font-family="Times,serif" font-size="14.00">rule</text>
</g>
<!-- when -->
<g id="node2" class="node"><title>when</title>
<ellipse fill="none" stroke="black" cx="243.537" cy="-306" rx="29.795" ry="18"/>
<text text-anchor="middle" x="243.537" y="-302.3" font-family="Times,serif" font-size="14.00">when</text>
</g>
<!-- rule&#45;&#45;when -->
<g id="edge1" class="edge"><title>rule&#45;&#45;when</title>
<path fill="none" stroke="black" d="M243.537,-359.697C243.537,-348.846 243.537,-334.917 243.537,-324.104"/>
</g>
<!-- and -->
<g id="node3" class="node"><title>and</title>
<ellipse fill="none" stroke="black" cx="243.537" cy="-234" rx="27" ry="18"/>
<text text-anchor="middle" x="243.537" y="-230.3" font-family="Times,serif" font-size="14.00">and</text>
</g>
<!-- when&#45;&#45;and -->
<g id="edge2" class="edge"><title>when&#45;&#45;and</title>
<path fill="none" stroke="black" d="M243.537,-287.697C243.537,-276.846 243.537,-262.917 243.537,-252.104"/>
</g>
<!-- account phone number starts with +33 -->
<g id="node4" class="node"><title>account phone number starts with +33</title>
<ellipse fill="none" stroke="black" cx="147.537" cy="-162" rx="147.574" ry="18"/>
<text text-anchor="middle" x="147.537" y="-158.3" font-family="Times,serif" font-size="14.00">account phone number starts with +33</text>
</g>
<!-- and&#45;&#45;account phone number starts with +33 -->
<g id="edge3" class="edge"><title>and&#45;&#45;account phone number starts with +33</title>
<path fill="none" stroke="black" d="M225.929,-220.161C210.448,-208.873 187.802,-192.36 170.826,-179.981"/>
</g>
<!-- and1 -->
<g id="node5" class="node"><title>and1</title>
<ellipse fill="none" stroke="black" cx="340.537" cy="-162" rx="27.8951" ry="18"/>
<text text-anchor="middle" x="340.537" y="-158.3" font-family="Times,serif" font-size="14.00">and1</text>
</g>
<!-- and&#45;&#45;and1 -->
<g id="edge4" class="edge"><title>and&#45;&#45;and1</title>
<path fill="none" stroke="black" d="M261.328,-220.161C278.721,-207.61 305.064,-188.599 322.53,-175.995"/>
</g>
<!-- account country = FR -->
<g id="node6" class="node"><title>account country = FR</title>
<ellipse fill="none" stroke="black" cx="273.537" cy="-90" rx="88.2844" ry="18"/>
<text text-anchor="middle" x="273.537" y="-86.3" font-family="Times,serif" font-size="14.00">account country = FR</text>
</g>
<!-- and1&#45;&#45;account country = FR -->
<g id="edge5" class="edge"><title>and1&#45;&#45;account country = FR</title>
<path fill="none" stroke="black" d="M326.328,-146.155C315.572,-134.918 300.792,-119.476 289.606,-107.789"/>
</g>
<!-- and2 -->
<g id="node7" class="node"><title>and2</title>
<ellipse fill="none" stroke="black" cx="407.537" cy="-90" rx="27.8951" ry="18"/>
<text text-anchor="middle" x="407.537" y="-86.3" font-family="Times,serif" font-size="14.00">and2</text>
</g>
<!-- and1&#45;&#45;and2 -->
<g id="edge6" class="edge"><title>and1&#45;&#45;and2</title>
<path fill="none" stroke="black" d="M354.746,-146.155C366.116,-134.276 381.984,-117.697 393.348,-105.824"/>
</g>
<!-- account email length &lt;= configuration max email size -->
<g id="node8" class="node"><title>account email length &lt;= configuration max email size</title>
<ellipse fill="none" stroke="black" cx="232.537" cy="-18" rx="204.164" ry="18"/>
<text text-anchor="middle" x="232.537" y="-14.3" font-family="Times,serif" font-size="14.00">account email length &lt;= configuration max email size</text>
</g>
<!-- and2&#45;&#45;account email length &lt;= configuration max email size -->
<g id="edge7" class="edge"><title>and2&#45;&#45;account email length &lt;= configuration max email size</title>
<path fill="none" stroke="black" d="M385.727,-78.6987C380.761,-76.4313 375.488,-74.0857 370.537,-72 339.908,-59.0976 304.954,-45.6864 277.888,-35.5829"/>
</g>
<!-- user birthdate age at today &gt;= 18 -->
<g id="node9" class="node"><title>user birthdate age at today &gt;= 18</title>
<ellipse fill="none" stroke="black" cx="583.537" cy="-18" rx="128.877" ry="18"/>
<text text-anchor="middle" x="583.537" y="-14.3" font-family="Times,serif" font-size="14.00">user birthdate age at today &gt;= 18</text>
</g>
<!-- and2&#45;&#45;user birthdate age at today &gt;= 18 -->
<g id="edge8" class="edge"><title>and2&#45;&#45;user birthdate age at today &gt;= 18</title>
<path fill="none" stroke="black" d="M430.908,-79.7045C459.428,-68.3615 508.131,-48.9909 542.851,-35.182"/>
</g>
</g>
</svg>
