<?xml version="1.0" encoding="UTF-8" standalone="no"?>
<!DOCTYPE svg PUBLIC "-//W3C//DTD SVG 1.1//EN"
 "http://www.w3.org/Graphics/SVG/1.1/DTD/svg11.dtd">
<!-- Generated by graphviz version 2.38.0 (20140413.2041)
 -->
<!-- Title: %3 Pages: 1 -->
<svg width="364pt" height="552pt"
 viewBox="0.00 0.00 364.00 552.00" xmlns="http://www.w3.org/2000/svg" xmlns:xlink="http://www.w3.org/1999/xlink">
<g id="graph0" class="graph" transform="scale(1 1) rotate(0) translate(4 548)">
<title>%3</title>
<polygon fill="white" stroke="none" points="-4,4 -4,-548 360,-548 360,4 -4,4"/>
<!-- rule -->
<g id="node1" class="node"><title>rule</title>
<ellipse fill="none" stroke="black" cx="227.5" cy="-526" rx="27" ry="18"/>
<text text-anchor="middle" x="227.5" y="-522.3" font-family="Times,serif" font-size="14.00">rule</text>
</g>
<!-- when -->
<g id="node2" class="node"><title>when</title>
<ellipse fill="none" stroke="black" cx="227.5" cy="-454" rx="29.795" ry="18"/>
<text text-anchor="middle" x="227.5" y="-450.3" font-family="Times,serif" font-size="14.00">when</text>
</g>
<!-- rule&#45;&gt;when -->
<g id="edge1" class="edge"><title>rule&#45;&gt;when</title>
<path fill="none" stroke="black" d="M227.5,-507.697C227.5,-499.983 227.5,-490.712 227.5,-482.112"/>
<polygon fill="black" stroke="black" points="231,-482.104 227.5,-472.104 224,-482.104 231,-482.104"/>
</g>
<!-- and1 -->
<g id="node3" class="node"><title>and1</title>
<ellipse fill="none" stroke="black" cx="227.5" cy="-382" rx="27" ry="18"/>
<text text-anchor="middle" x="227.5" y="-378.3" font-family="Times,serif" font-size="14.00">and</text>
</g>
<!-- when&#45;&gt;and1 -->
<g id="edge2" class="edge"><title>when&#45;&gt;and1</title>
<path fill="none" stroke="black" d="M227.5,-435.697C227.5,-427.983 227.5,-418.712 227.5,-410.112"/>
<polygon fill="black" stroke="black" points="231,-410.104 227.5,-400.104 224,-410.104 231,-410.104"/>
</g>
<!-- and2 -->
<g id="node4" class="node"><title>and2</title>
<ellipse fill="none" stroke="black" cx="169.5" cy="-293" rx="27" ry="18"/>
<text text-anchor="middle" x="169.5" y="-289.3" font-family="Times,serif" font-size="14.00">and</text>
</g>
<!-- and1&#45;&gt;and2 -->
<g id="edge4" class="edge"><title>and1&#45;&gt;and2</title>
<path fill="none" stroke="black" d="M216.862,-365.043C208.196,-352.043 195.813,-333.469 185.882,-318.573"/>
<polygon fill="black" stroke="black" points="188.53,-316.235 180.071,-309.856 182.706,-320.118 188.53,-316.235"/>
</g>
<!-- phone -->
<g id="node6" class="node"><title>phone</title>
<path fill="none" stroke="black" d="M227,-258.5C227,-258.5 344,-258.5 344,-258.5 350,-258.5 356,-264.5 356,-270.5 356,-270.5 356,-315.5 356,-315.5 356,-321.5 350,-327.5 344,-327.5 344,-327.5 227,-327.5 227,-327.5 221,-327.5 215,-321.5 215,-315.5 215,-315.5 215,-270.5 215,-270.5 215,-264.5 221,-258.5 227,-258.5"/>
<text text-anchor="middle" x="285.5" y="-312.3" font-family="Times,serif" font-size="14.00">account phone number</text>
<polyline fill="none" stroke="black" points="215,-304.5 356,-304.5 "/>
<text text-anchor="middle" x="285.5" y="-289.3" font-family="Times,serif" font-size="14.00">starts with</text>
<polyline fill="none" stroke="black" points="215,-281.5 356,-281.5 "/>
<text text-anchor="middle" x="285.5" y="-266.3" font-family="Times,serif" font-size="14.00">+33</text>
</g>
<!-- and1&#45;&gt;phone -->
<g id="edge3" class="edge"><title>and1&#45;&gt;phone</title>
<path fill="none" stroke="black" d="M238.138,-365.043C243.606,-356.841 250.553,-346.421 257.43,-336.105"/>
<polygon fill="black" stroke="black" points="260.521,-337.778 263.156,-327.516 254.697,-333.895 260.521,-337.778"/>
</g>
<!-- and3 -->
<g id="node5" class="node"><title>and3</title>
<ellipse fill="none" stroke="black" cx="121.5" cy="-187" rx="27" ry="18"/>
<text text-anchor="middle" x="121.5" y="-183.3" font-family="Times,serif" font-size="14.00">and</text>
</g>
<!-- and2&#45;&gt;and3 -->
<g id="edge6" class="edge"><title>and2&#45;&gt;and3</title>
<path fill="none" stroke="black" d="M161.788,-275.291C154.08,-258.59 142.128,-232.694 133.241,-213.439"/>
<polygon fill="black" stroke="black" points="136.403,-211.938 129.035,-204.325 130.047,-214.871 136.403,-211.938"/>
</g>
<!-- country -->
<g id="node7" class="node"><title>country</title>
<path fill="none" stroke="black" d="M178.5,-152.5C178.5,-152.5 258.5,-152.5 258.5,-152.5 264.5,-152.5 270.5,-158.5 270.5,-164.5 270.5,-164.5 270.5,-209.5 270.5,-209.5 270.5,-215.5 264.5,-221.5 258.5,-221.5 258.5,-221.5 178.5,-221.5 178.5,-221.5 172.5,-221.5 166.5,-215.5 166.5,-209.5 166.5,-209.5 166.5,-164.5 166.5,-164.5 166.5,-158.5 172.5,-152.5 178.5,-152.5"/>
<text text-anchor="middle" x="218.5" y="-206.3" font-family="Times,serif" font-size="14.00">account country</text>
<polyline fill="none" stroke="black" points="166.5,-198.5 270.5,-198.5 "/>
<text text-anchor="middle" x="218.5" y="-183.3" font-family="Times,serif" font-size="14.00">=</text>
<polyline fill="none" stroke="black" points="166.5,-175.5 270.5,-175.5 "/>
<text text-anchor="middle" x="218.5" y="-160.3" font-family="Times,serif" font-size="14.00">FR</text>
</g>
<!-- and2&#45;&gt;country -->
<g id="edge5" class="edge"><title>and2&#45;&gt;country</title>
<path fill="none" stroke="black" d="M177.373,-275.291C182.974,-263.403 190.769,-246.857 198.069,-231.363"/>
<polygon fill="black" stroke="black" points="201.431,-232.441 202.527,-221.903 195.098,-229.457 201.431,-232.441"/>
</g>
<!-- age -->
<g id="node8" class="node"><title>age</title>
<path fill="none" stroke="black" d="M12,-0.5C12,-0.5 79,-0.5 79,-0.5 85,-0.5 91,-6.5 91,-12.5 91,-12.5 91,-103.5 91,-103.5 91,-109.5 85,-115.5 79,-115.5 79,-115.5 12,-115.5 12,-115.5 6,-115.5 0,-109.5 0,-103.5 0,-103.5 0,-12.5 0,-12.5 0,-6.5 6,-0.5 12,-0.5"/>
<text text-anchor="middle" x="45.5" y="-100.3" font-family="Times,serif" font-size="14.00">user birthdate</text>
<polyline fill="none" stroke="black" points="0,-92.5 91,-92.5 "/>
<text text-anchor="middle" x="45.5" y="-77.3" font-family="Times,serif" font-size="14.00">age at</text>
<polyline fill="none" stroke="black" points="0,-69.5 91,-69.5 "/>
<text text-anchor="middle" x="45.5" y="-54.3" font-family="Times,serif" font-size="14.00">today</text>
<polyline fill="none" stroke="black" points="0,-46.5 91,-46.5 "/>
<text text-anchor="middle" x="45.5" y="-31.3" font-family="Times,serif" font-size="14.00">&gt;=</text>
<polyline fill="none" stroke="black" points="0,-23.5 91,-23.5 "/>
<text text-anchor="middle" x="45.5" y="-8.3" font-family="Times,serif" font-size="14.00">18</text>
</g>
<!-- and3&#45;&gt;age -->
<g id="edge7" class="edge"><title>and3&#45;&gt;age</title>
<path fill="none" stroke="black" d="M111.875,-169.915C104.868,-158.207 94.8707,-141.501 84.7549,-124.597"/>
<polygon fill="black" stroke="black" points="87.6077,-122.548 79.4694,-115.765 81.6011,-126.143 87.6077,-122.548"/>
</g>
<!-- email -->
<g id="node9" class="node"><title>email</title>
<path fill="none" stroke="black" d="M121.5,-23.5C121.5,-23.5 273.5,-23.5 273.5,-23.5 279.5,-23.5 285.5,-29.5 285.5,-35.5 285.5,-35.5 285.5,-80.5 285.5,-80.5 285.5,-86.5 279.5,-92.5 273.5,-92.5 273.5,-92.5 121.5,-92.5 121.5,-92.5 115.5,-92.5 109.5,-86.5 109.5,-80.5 109.5,-80.5 109.5,-35.5 109.5,-35.5 109.5,-29.5 115.5,-23.5 121.5,-23.5"/>
<text text-anchor="middle" x="197.5" y="-77.3" font-family="Times,serif" font-size="14.00">account email length</text>
<polyline fill="none" stroke="black" points="109.5,-69.5 285.5,-69.5 "/>
<text text-anchor="middle" x="197.5" y="-54.3" font-family="Times,serif" font-size="14.00">&lt;=</text>
<polyline fill="none" stroke="black" points="109.5,-46.5 285.5,-46.5 "/>
<text text-anchor="middle" x="197.5" y="-31.3" font-family="Times,serif" font-size="14.00">configuration max email size</text>
</g>
<!-- and3&#45;&gt;email -->
<g id="edge8" class="edge"><title>and3&#45;&gt;email</title>
<path fill="none" stroke="black" d="M131.125,-169.915C141.397,-152.752 158.093,-124.851 172.17,-101.327"/>
<polygon fill="black" stroke="black" points="175.287,-102.935 177.418,-92.5573 169.28,-99.3409 175.287,-102.935"/>
</g>
</g>
</svg>
