<?xml version="1.0" encoding="UTF-8" standalone="no"?>
<!DOCTYPE svg PUBLIC "-//W3C//DTD SVG 1.1//EN"
 "http://www.w3.org/Graphics/SVG/1.1/DTD/svg11.dtd">
<!-- Generated by graphviz version 2.38.0 (20140413.2041)
 -->
<!-- Title: %3 Pages: 1 -->
<svg width="1158pt" height="548pt"
 viewBox="0.00 0.00 1158.41 548.00" xmlns="http://www.w3.org/2000/svg" xmlns:xlink="http://www.w3.org/1999/xlink">
<g id="graph0" class="graph" transform="scale(1 1) rotate(0) translate(4 544)">
<title>%3</title>
<polygon fill="white" stroke="none" points="-4,4 -4,-544 1154.41,-544 1154.41,4 -4,4"/>
<!-- rule -->
<g id="node1" class="node"><title>rule</title>
<path fill="none" stroke="black" d="M875.41,-540C875.41,-540 845.41,-540 845.41,-540 839.41,-540 833.41,-534 833.41,-528 833.41,-528 833.41,-516 833.41,-516 833.41,-510 839.41,-504 845.41,-504 845.41,-504 875.41,-504 875.41,-504 881.41,-504 887.41,-510 887.41,-516 887.41,-516 887.41,-528 887.41,-528 887.41,-534 881.41,-540 875.41,-540"/>
<text text-anchor="middle" x="860.41" y="-518.3" font-family="Times,serif" font-size="14.00">rule</text>
</g>
<!-- when -->
<g id="node2" class="node"><title>when</title>
<path fill="none" stroke="black" d="M875.41,-468C875.41,-468 845.41,-468 845.41,-468 839.41,-468 833.41,-462 833.41,-456 833.41,-456 833.41,-444 833.41,-444 833.41,-438 839.41,-432 845.41,-432 845.41,-432 875.41,-432 875.41,-432 881.41,-432 887.41,-438 887.41,-444 887.41,-444 887.41,-456 887.41,-456 887.41,-462 881.41,-468 875.41,-468"/>
<text text-anchor="middle" x="860.41" y="-446.3" font-family="Times,serif" font-size="14.00">when</text>
</g>
<!-- rule&#45;&gt;when -->
<g id="edge1" class="edge"><title>rule&#45;&gt;when</title>
<path fill="none" stroke="black" d="M860.41,-503.697C860.41,-495.983 860.41,-486.712 860.41,-478.112"/>
<polygon fill="black" stroke="black" points="863.91,-478.104 860.41,-468.104 856.91,-478.104 863.91,-478.104"/>
</g>
<!-- and1 -->
<g id="node3" class="node"><title>and1</title>
<path fill="none" stroke="black" d="M875.41,-396C875.41,-396 845.41,-396 845.41,-396 839.41,-396 833.41,-390 833.41,-384 833.41,-384 833.41,-372 833.41,-372 833.41,-366 839.41,-360 845.41,-360 845.41,-360 875.41,-360 875.41,-360 881.41,-360 887.41,-366 887.41,-372 887.41,-372 887.41,-384 887.41,-384 887.41,-390 881.41,-396 875.41,-396"/>
<text text-anchor="middle" x="860.41" y="-374.3" font-family="Times,serif" font-size="14.00">and1</text>
</g>
<!-- when&#45;&gt;and1 -->
<g id="edge2" class="edge"><title>when&#45;&gt;and1</title>
<path fill="none" stroke="black" d="M860.41,-431.697C860.41,-423.983 860.41,-414.712 860.41,-406.112"/>
<polygon fill="black" stroke="black" points="863.91,-406.104 860.41,-396.104 856.91,-406.104 863.91,-406.104"/>
</g>
<!-- and2 -->
<g id="node4" class="node"><title>and2</title>
<path fill="none" stroke="black" d="M788.41,-324C788.41,-324 758.41,-324 758.41,-324 752.41,-324 746.41,-318 746.41,-312 746.41,-312 746.41,-300 746.41,-300 746.41,-294 752.41,-288 758.41,-288 758.41,-288 788.41,-288 788.41,-288 794.41,-288 800.41,-294 800.41,-300 800.41,-300 800.41,-312 800.41,-312 800.41,-318 794.41,-324 788.41,-324"/>
<text text-anchor="middle" x="773.41" y="-302.3" font-family="Times,serif" font-size="14.00">and2</text>
</g>
<!-- and1&#45;&gt;and2 -->
<g id="edge6" class="edge"><title>and1&#45;&gt;and2</title>
<path fill="none" stroke="black" d="M838.904,-359.697C827.947,-350.881 814.464,-340.032 802.585,-330.474"/>
<polygon fill="black" stroke="black" points="804.653,-327.646 794.668,-324.104 800.265,-333.1 804.653,-327.646"/>
</g>
<!-- starts with -->
<g id="node11" class="node"><title>starts with</title>
<ellipse fill="none" stroke="black" cx="948.41" cy="-306" rx="47.3916" ry="18"/>
<text text-anchor="middle" x="948.41" y="-302.3" font-family="Times,serif" font-size="14.00">starts with</text>
</g>
<!-- and1&#45;&gt;starts with -->
<g id="edge3" class="edge"><title>and1&#45;&gt;starts with</title>
<path fill="none" stroke="black" d="M882.162,-359.697C893.936,-350.331 908.594,-338.671 921.127,-328.702"/>
<polygon fill="black" stroke="black" points="923.357,-331.401 929.004,-322.436 918.999,-325.922 923.357,-331.401"/>
</g>
<!-- and3 -->
<g id="node5" class="node"><title>and3</title>
<path fill="none" stroke="black" d="M647.41,-252C647.41,-252 617.41,-252 617.41,-252 611.41,-252 605.41,-246 605.41,-240 605.41,-240 605.41,-228 605.41,-228 605.41,-222 611.41,-216 617.41,-216 617.41,-216 647.41,-216 647.41,-216 653.41,-216 659.41,-222 659.41,-228 659.41,-228 659.41,-240 659.41,-240 659.41,-246 653.41,-252 647.41,-252"/>
<text text-anchor="middle" x="632.41" y="-230.3" font-family="Times,serif" font-size="14.00">and3</text>
</g>
<!-- and2&#45;&gt;and3 -->
<g id="edge10" class="edge"><title>and2&#45;&gt;and3</title>
<path fill="none" stroke="black" d="M746.223,-291.503C724.181,-280.56 692.917,-265.039 668.731,-253.032"/>
<polygon fill="black" stroke="black" points="670.026,-249.767 659.512,-248.455 666.913,-256.037 670.026,-249.767"/>
</g>
<!-- = -->
<g id="node13" class="node"><title>=</title>
<ellipse fill="none" stroke="black" cx="773.41" cy="-234" rx="27" ry="18"/>
<text text-anchor="middle" x="773.41" y="-230.3" font-family="Times,serif" font-size="14.00">=</text>
</g>
<!-- and2&#45;&gt;= -->
<g id="edge7" class="edge"><title>and2&#45;&gt;=</title>
<path fill="none" stroke="black" d="M773.41,-287.697C773.41,-279.983 773.41,-270.712 773.41,-262.112"/>
<polygon fill="black" stroke="black" points="776.91,-262.104 773.41,-252.104 769.91,-262.104 776.91,-262.104"/>
</g>
<!-- &lt;= -->
<g id="node15" class="node"><title>&lt;=</title>
<ellipse fill="none" stroke="black" cx="420.41" cy="-162" rx="27" ry="18"/>
<text text-anchor="middle" x="420.41" y="-158.3" font-family="Times,serif" font-size="14.00">&lt;=</text>
</g>
<!-- and3&#45;&gt;&lt;= -->
<g id="edge11" class="edge"><title>and3&#45;&gt;&lt;=</title>
<path fill="none" stroke="black" d="M605.128,-223.992C566.386,-211.2 495.502,-187.795 453.71,-173.996"/>
<polygon fill="black" stroke="black" points="454.594,-170.601 444.001,-170.789 452.399,-177.248 454.594,-170.601"/>
</g>
<!-- &gt;= -->
<g id="node16" class="node"><title>&gt;=</title>
<ellipse fill="none" stroke="black" cx="632.41" cy="-162" rx="27" ry="18"/>
<text text-anchor="middle" x="632.41" y="-158.3" font-family="Times,serif" font-size="14.00">&gt;=</text>
</g>
<!-- and3&#45;&gt;&gt;= -->
<g id="edge14" class="edge"><title>and3&#45;&gt;&gt;=</title>
<path fill="none" stroke="black" d="M632.41,-215.697C632.41,-207.983 632.41,-198.712 632.41,-190.112"/>
<polygon fill="black" stroke="black" points="635.91,-190.104 632.41,-180.104 628.91,-190.104 635.91,-190.104"/>
</g>
<!-- account phone number -->
<g id="node6" class="node"><title>account phone number</title>
<path fill="none" stroke="black" d="M936.524,-250.35C936.524,-250.35 830.593,-235.65 830.593,-235.65 824.65,-234.825 824.65,-233.175 830.593,-232.35 830.593,-232.35 936.524,-217.65 936.524,-217.65 942.467,-216.825 954.353,-216.825 960.296,-217.65 960.296,-217.65 1066.23,-232.35 1066.23,-232.35 1072.17,-233.175 1072.17,-234.825 1066.23,-235.65 1066.23,-235.65 960.296,-250.35 960.296,-250.35 954.353,-251.175 942.467,-251.175 936.524,-250.35"/>
<text text-anchor="middle" x="948.41" y="-230.3" font-family="Times,serif" font-size="14.00">account phone number</text>
</g>
<!-- account country -->
<g id="node7" class="node"><title>account country</title>
<path fill="none" stroke="black" d="M761.616,-177.782C761.616,-177.782 689.518,-164.218 689.518,-164.218 683.621,-163.109 683.621,-160.891 689.518,-159.782 689.518,-159.782 761.616,-146.218 761.616,-146.218 767.513,-145.109 779.306,-145.109 785.203,-146.218 785.203,-146.218 857.301,-159.782 857.301,-159.782 863.198,-160.891 863.198,-163.109 857.301,-164.218 857.301,-164.218 785.203,-177.782 785.203,-177.782 779.306,-178.891 767.513,-178.891 761.616,-177.782"/>
<text text-anchor="middle" x="773.41" y="-158.3" font-family="Times,serif" font-size="14.00">account country</text>
</g>
<!-- account email length -->
<g id="node8" class="node"><title>account email length</title>
<path fill="none" stroke="black" d="M108.542,-106.225C108.542,-106.225 11.9583,-91.7755 11.9583,-91.7755 6.0243,-90.8877 6.0243,-89.1123 11.9583,-88.2245 11.9583,-88.2245 108.542,-73.7755 108.542,-73.7755 114.476,-72.8877 126.344,-72.8877 132.278,-73.7755 132.278,-73.7755 228.861,-88.2245 228.861,-88.2245 234.795,-89.1123 234.795,-90.8877 228.861,-91.7755 228.861,-91.7755 132.278,-106.225 132.278,-106.225 126.344,-107.112 114.476,-107.112 108.542,-106.225"/>
<text text-anchor="middle" x="120.41" y="-86.3" font-family="Times,serif" font-size="14.00">account email length</text>
</g>
<!-- configuration max email size -->
<g id="node9" class="node"><title>configuration max email size</title>
<path fill="none" stroke="black" d="M408.483,-106.671C408.483,-106.671 270.792,-91.3289 270.792,-91.3289 264.829,-90.6644 264.829,-89.3356 270.792,-88.6711 270.792,-88.6711 408.483,-73.3289 408.483,-73.3289 414.447,-72.6644 426.373,-72.6644 432.336,-73.3289 432.336,-73.3289 570.027,-88.6711 570.027,-88.6711 575.99,-89.3356 575.99,-90.6644 570.027,-91.3289 570.027,-91.3289 432.336,-106.671 432.336,-106.671 426.373,-107.336 414.447,-107.336 408.483,-106.671"/>
<text text-anchor="middle" x="420.41" y="-86.3" font-family="Times,serif" font-size="14.00">configuration max email size</text>
</g>
<!-- user birthdate -->
<g id="node10" class="node"><title>user birthdate</title>
<path fill="none" stroke="black" d="M554.677,-33.4795C554.677,-33.4795 494.355,-20.5205 494.355,-20.5205 488.489,-19.2602 488.489,-16.7398 494.355,-15.4795 494.355,-15.4795 554.677,-2.52046 554.677,-2.52046 560.543,-1.26023 572.276,-1.26023 578.142,-2.52046 578.142,-2.52046 638.464,-15.4795 638.464,-15.4795 644.33,-16.7398 644.33,-19.2602 638.464,-20.5205 638.464,-20.5205 578.142,-33.4795 578.142,-33.4795 572.276,-34.7398 560.543,-34.7398 554.677,-33.4795"/>
<text text-anchor="middle" x="566.41" y="-14.3" font-family="Times,serif" font-size="14.00">user birthdate</text>
</g>
<!-- starts with&#45;&gt;account phone number -->
<g id="edge4" class="edge"><title>starts with&#45;&gt;account phone number</title>
<path fill="none" stroke="black" d="M948.41,-287.697C948.41,-279.983 948.41,-270.712 948.41,-262.112"/>
<polygon fill="black" stroke="black" points="951.91,-262.104 948.41,-252.104 944.91,-262.104 951.91,-262.104"/>
</g>
<!-- +33 -->
<g id="node12" class="node"><title>+33</title>
<ellipse fill="none" stroke="black" cx="1123.41" cy="-234" rx="27" ry="18"/>
<text text-anchor="middle" x="1123.41" y="-230.3" font-family="Times,serif" font-size="14.00">+33</text>
</g>
<!-- starts with&#45;&gt;+33 -->
<g id="edge5" class="edge"><title>starts with&#45;&gt;+33</title>
<path fill="none" stroke="black" d="M981.837,-293.074C1010.17,-282.77 1051.77,-267.183 1087.41,-252 1089.22,-251.228 1091.08,-250.417 1092.94,-249.586"/>
<polygon fill="black" stroke="black" points="1094.58,-252.687 1102.21,-245.341 1091.66,-246.322 1094.58,-252.687"/>
</g>
<!-- =&#45;&gt;account country -->
<g id="edge8" class="edge"><title>=&#45;&gt;account country</title>
<path fill="none" stroke="black" d="M773.41,-215.697C773.41,-207.983 773.41,-198.712 773.41,-190.112"/>
<polygon fill="black" stroke="black" points="776.91,-190.104 773.41,-180.104 769.91,-190.104 776.91,-190.104"/>
</g>
<!-- FR -->
<g id="node14" class="node"><title>FR</title>
<ellipse fill="none" stroke="black" cx="914.41" cy="-162" rx="27" ry="18"/>
<text text-anchor="middle" x="914.41" y="-158.3" font-family="Times,serif" font-size="14.00">FR</text>
</g>
<!-- =&#45;&gt;FR -->
<g id="edge9" class="edge"><title>=&#45;&gt;FR</title>
<path fill="none" stroke="black" d="M794.519,-222.52C818.297,-210.716 857.138,-191.433 884.142,-178.026"/>
<polygon fill="black" stroke="black" points="885.756,-181.133 893.156,-173.551 882.643,-174.863 885.756,-181.133"/>
</g>
<!-- &lt;=&#45;&gt;account email length -->
<g id="edge12" class="edge"><title>&lt;=&#45;&gt;account email length</title>
<path fill="none" stroke="black" d="M395.348,-155.152C347.159,-143.908 240.572,-119.038 175.173,-103.778"/>
<polygon fill="black" stroke="black" points="175.58,-100.279 165.046,-101.415 173.989,-107.096 175.58,-100.279"/>
</g>
<!-- &lt;=&#45;&gt;configuration max email size -->
<g id="edge13" class="edge"><title>&lt;=&#45;&gt;configuration max email size</title>
<path fill="none" stroke="black" d="M420.41,-143.697C420.41,-135.983 420.41,-126.712 420.41,-118.112"/>
<polygon fill="black" stroke="black" points="423.91,-118.104 420.41,-108.104 416.91,-118.104 423.91,-118.104"/>
</g>
<!-- age at -->
<g id="node17" class="node"><title>age at</title>
<ellipse fill="none" stroke="black" cx="632.41" cy="-90" rx="31.6951" ry="18"/>
<text text-anchor="middle" x="632.41" y="-86.3" font-family="Times,serif" font-size="14.00">age at</text>
</g>
<!-- &gt;=&#45;&gt;age at -->
<g id="edge15" class="edge"><title>&gt;=&#45;&gt;age at</title>
<path fill="none" stroke="black" d="M632.41,-143.697C632.41,-135.983 632.41,-126.712 632.41,-118.112"/>
<polygon fill="black" stroke="black" points="635.91,-118.104 632.41,-108.104 628.91,-118.104 635.91,-118.104"/>
</g>
<!-- 18 -->
<g id="node18" class="node"><title>18</title>
<ellipse fill="none" stroke="black" cx="709.41" cy="-90" rx="27" ry="18"/>
<text text-anchor="middle" x="709.41" y="-86.3" font-family="Times,serif" font-size="14.00">18</text>
</g>
<!-- &gt;=&#45;&gt;18 -->
<g id="edge16" class="edge"><title>&gt;=&#45;&gt;18</title>
<path fill="none" stroke="black" d="M647.992,-146.834C659.022,-136.806 674,-123.191 686.402,-111.916"/>
<polygon fill="black" stroke="black" points="689.068,-114.222 694.113,-104.906 684.36,-109.043 689.068,-114.222"/>
</g>
<!-- age at&#45;&gt;user birthdate -->
<g id="edge17" class="edge"><title>age at&#45;&gt;user birthdate</title>
<path fill="none" stroke="black" d="M618.089,-73.811C608.936,-64.1041 596.926,-51.3657 586.787,-40.6125"/>
<polygon fill="black" stroke="black" points="589.21,-38.0799 579.803,-33.2051 584.117,-42.8821 589.21,-38.0799"/>
</g>
<!-- today -->
<g id="node19" class="node"><title>today</title>
<ellipse fill="none" stroke="black" cx="698.41" cy="-18" rx="30.5947" ry="18"/>
<text text-anchor="middle" x="698.41" y="-14.3" font-family="Times,serif" font-size="14.00">today</text>
</g>
<!-- age at&#45;&gt;today -->
<g id="edge18" class="edge"><title>age at&#45;&gt;today</title>
<path fill="none" stroke="black" d="M646.731,-73.811C655.639,-64.3629 667.255,-52.0429 677.217,-41.4769"/>
<polygon fill="black" stroke="black" points="679.803,-43.8363 684.117,-34.1593 674.71,-39.0342 679.803,-43.8363"/>
</g>
</g>
</svg>
