<?xml version="1.0" encoding="UTF-8" standalone="no"?>
<!DOCTYPE svg PUBLIC "-//W3C//DTD SVG 1.1//EN"
 "http://www.w3.org/Graphics/SVG/1.1/DTD/svg11.dtd">
<!-- Generated by graphviz version 2.38.0 (20140413.2041)
 -->
<!-- Title: %3 Pages: 1 -->
<svg width="659pt" height="548pt"
 viewBox="0.00 0.00 658.64 548.00" xmlns="http://www.w3.org/2000/svg" xmlns:xlink="http://www.w3.org/1999/xlink">
<g id="graph0" class="graph" transform="scale(1 1) rotate(0) translate(4 544)">
<title>%3</title>
<polygon fill="white" stroke="none" points="-4,4 -4,-544 654.642,-544 654.642,4 -4,4"/>
<!-- rule -->
<g id="node1" class="node"><title>rule</title>
<ellipse fill="none" stroke="black" cx="268.642" cy="-522" rx="27" ry="18"/>
<text text-anchor="middle" x="268.642" y="-518.3" font-family="Times,serif" font-size="14.00">rule</text>
</g>
<!-- when -->
<g id="node2" class="node"><title>when</title>
<ellipse fill="none" stroke="black" cx="268.642" cy="-450" rx="29.795" ry="18"/>
<text text-anchor="middle" x="268.642" y="-446.3" font-family="Times,serif" font-size="14.00">when</text>
</g>
<!-- rule&#45;&#45;when -->
<g id="edge1" class="edge"><title>rule&#45;&#45;when</title>
<path fill="none" stroke="black" d="M268.642,-503.697C268.642,-492.846 268.642,-478.917 268.642,-468.104"/>
</g>
<!-- and -->
<g id="node3" class="node"><title>and</title>
<ellipse fill="none" stroke="black" cx="268.642" cy="-378" rx="27" ry="18"/>
<text text-anchor="middle" x="268.642" y="-374.3" font-family="Times,serif" font-size="14.00">and</text>
</g>
<!-- when&#45;&#45;and -->
<g id="edge2" class="edge"><title>when&#45;&#45;and</title>
<path fill="none" stroke="black" d="M268.642,-431.697C268.642,-420.846 268.642,-406.917 268.642,-396.104"/>
</g>
<!-- starts with -->
<g id="node4" class="node"><title>starts with</title>
<ellipse fill="none" stroke="black" cx="222.642" cy="-306" rx="47.3916" ry="18"/>
<text text-anchor="middle" x="222.642" y="-302.3" font-family="Times,serif" font-size="14.00">starts with</text>
</g>
<!-- and&#45;&#45;starts with -->
<g id="edge3" class="edge"><title>and&#45;&#45;starts with</title>
<path fill="none" stroke="black" d="M258.204,-361.116C250.888,-349.983 241.125,-335.127 233.68,-323.797"/>
</g>
<!-- and1 -->
<g id="node7" class="node"><title>and1</title>
<ellipse fill="none" stroke="black" cx="315.642" cy="-306" rx="27.8951" ry="18"/>
<text text-anchor="middle" x="315.642" y="-302.3" font-family="Times,serif" font-size="14.00">and1</text>
</g>
<!-- and&#45;&#45;and1 -->
<g id="edge6" class="edge"><title>and&#45;&#45;and1</title>
<path fill="none" stroke="black" d="M279.307,-361.116C286.999,-349.66 297.337,-334.263 305.019,-322.821"/>
</g>
<!-- account phone number -->
<g id="node5" class="node"><title>account phone number</title>
<ellipse fill="none" stroke="black" cx="91.6419" cy="-234" rx="91.784" ry="18"/>
<text text-anchor="middle" x="91.6419" y="-230.3" font-family="Times,serif" font-size="14.00">account phone number</text>
</g>
<!-- starts with&#45;&#45;account phone number -->
<g id="edge4" class="edge"><title>starts with&#45;&#45;account phone number</title>
<path fill="none" stroke="black" d="M196.132,-290.834C174.6,-279.329 144.23,-263.101 121.778,-251.103"/>
</g>
<!-- +33 -->
<g id="node6" class="node"><title>+33</title>
<ellipse fill="none" stroke="black" cx="228.642" cy="-234" rx="27" ry="18"/>
<text text-anchor="middle" x="228.642" y="-230.3" font-family="Times,serif" font-size="14.00">+33</text>
</g>
<!-- starts with&#45;&#45;+33 -->
<g id="edge5" class="edge"><title>starts with&#45;&#45;+33</title>
<path fill="none" stroke="black" d="M224.125,-287.697C225.055,-276.846 226.249,-262.917 227.176,-252.104"/>
</g>
<!-- = -->
<g id="node8" class="node"><title>=</title>
<ellipse fill="none" stroke="black" cx="310.642" cy="-234" rx="27" ry="18"/>
<text text-anchor="middle" x="310.642" y="-230.3" font-family="Times,serif" font-size="14.00">=</text>
</g>
<!-- and1&#45;&#45;= -->
<g id="edge7" class="edge"><title>and1&#45;&#45;=</title>
<path fill="none" stroke="black" d="M314.406,-287.697C313.631,-276.846 312.636,-262.917 311.864,-252.104"/>
</g>
<!-- and2 -->
<g id="node11" class="node"><title>and2</title>
<ellipse fill="none" stroke="black" cx="383.642" cy="-234" rx="27.8951" ry="18"/>
<text text-anchor="middle" x="383.642" y="-230.3" font-family="Times,serif" font-size="14.00">and2</text>
</g>
<!-- and1&#45;&#45;and2 -->
<g id="edge10" class="edge"><title>and1&#45;&#45;and2</title>
<path fill="none" stroke="black" d="M330.063,-290.155C341.603,-278.276 357.707,-261.697 369.242,-249.824"/>
</g>
<!-- account country -->
<g id="node9" class="node"><title>account country</title>
<ellipse fill="none" stroke="black" cx="197.642" cy="-162" rx="67.6881" ry="18"/>
<text text-anchor="middle" x="197.642" y="-158.3" font-family="Times,serif" font-size="14.00">account country</text>
</g>
<!-- =&#45;&#45;account country -->
<g id="edge8" class="edge"><title>=&#45;&#45;account country</title>
<path fill="none" stroke="black" d="M291.473,-221.125C272.709,-209.502 244.001,-191.718 223.281,-178.883"/>
</g>
<!-- FR -->
<g id="node10" class="node"><title>FR</title>
<ellipse fill="none" stroke="black" cx="310.642" cy="-162" rx="27" ry="18"/>
<text text-anchor="middle" x="310.642" y="-158.3" font-family="Times,serif" font-size="14.00">FR</text>
</g>
<!-- =&#45;&#45;FR -->
<g id="edge9" class="edge"><title>=&#45;&#45;FR</title>
<path fill="none" stroke="black" d="M310.642,-215.697C310.642,-204.846 310.642,-190.917 310.642,-180.104"/>
</g>
<!-- &lt;= -->
<g id="node12" class="node"><title>&lt;=</title>
<ellipse fill="none" stroke="black" cx="382.642" cy="-162" rx="27" ry="18"/>
<text text-anchor="middle" x="382.642" y="-158.3" font-family="Times,serif" font-size="14.00">&lt;=</text>
</g>
<!-- and2&#45;&#45;&lt;= -->
<g id="edge11" class="edge"><title>and2&#45;&#45;&lt;=</title>
<path fill="none" stroke="black" d="M383.395,-215.697C383.24,-204.846 383.041,-190.917 382.886,-180.104"/>
</g>
<!-- &gt;= -->
<g id="node15" class="node"><title>&gt;=</title>
<ellipse fill="none" stroke="black" cx="546.642" cy="-162" rx="27" ry="18"/>
<text text-anchor="middle" x="546.642" y="-158.3" font-family="Times,serif" font-size="14.00">&gt;=</text>
</g>
<!-- and2&#45;&#45;&gt;= -->
<g id="edge14" class="edge"><title>and2&#45;&#45;&gt;=</title>
<path fill="none" stroke="black" d="M406.306,-223.267C437.535,-209.856 493.443,-185.846 524.431,-172.538"/>
</g>
<!-- account email length -->
<g id="node13" class="node"><title>account email length</title>
<ellipse fill="none" stroke="black" cx="164.642" cy="-90" rx="85.2851" ry="18"/>
<text text-anchor="middle" x="164.642" y="-86.3" font-family="Times,serif" font-size="14.00">account email length</text>
</g>
<!-- &lt;=&#45;&#45;account email length -->
<g id="edge12" class="edge"><title>&lt;=&#45;&#45;account email length</title>
<path fill="none" stroke="black" d="M361.562,-150.366C356.722,-148.116 351.554,-145.862 346.642,-144 304.174,-127.905 254.605,-113.761 217.931,-104.142"/>
</g>
<!-- configuration max email size -->
<g id="node14" class="node"><title>configuration max email size</title>
<ellipse fill="none" stroke="black" cx="382.642" cy="-90" rx="114.28" ry="18"/>
<text text-anchor="middle" x="382.642" y="-86.3" font-family="Times,serif" font-size="14.00">configuration max email size</text>
</g>
<!-- &lt;=&#45;&#45;configuration max email size -->
<g id="edge13" class="edge"><title>&lt;=&#45;&#45;configuration max email size</title>
<path fill="none" stroke="black" d="M382.642,-143.697C382.642,-132.846 382.642,-118.917 382.642,-108.104"/>
</g>
<!-- age at -->
<g id="node16" class="node"><title>age at</title>
<ellipse fill="none" stroke="black" cx="546.642" cy="-90" rx="31.6951" ry="18"/>
<text text-anchor="middle" x="546.642" y="-86.3" font-family="Times,serif" font-size="14.00">age at</text>
</g>
<!-- &gt;=&#45;&#45;age at -->
<g id="edge15" class="edge"><title>&gt;=&#45;&#45;age at</title>
<path fill="none" stroke="black" d="M546.642,-143.697C546.642,-132.846 546.642,-118.917 546.642,-108.104"/>
</g>
<!-- 18 -->
<g id="node17" class="node"><title>18</title>
<ellipse fill="none" stroke="black" cx="623.642" cy="-90" rx="27" ry="18"/>
<text text-anchor="middle" x="623.642" y="-86.3" font-family="Times,serif" font-size="14.00">18</text>
</g>
<!-- &gt;=&#45;&#45;18 -->
<g id="edge16" class="edge"><title>&gt;=&#45;&#45;18</title>
<path fill="none" stroke="black" d="M562.224,-146.834C575.671,-134.61 594.983,-117.054 608.346,-104.906"/>
</g>
<!-- user birthdate -->
<g id="node18" class="node"><title>user birthdate</title>
<ellipse fill="none" stroke="black" cx="492.642" cy="-18" rx="59.2899" ry="18"/>
<text text-anchor="middle" x="492.642" y="-14.3" font-family="Times,serif" font-size="14.00">user birthdate</text>
</g>
<!-- age at&#45;&#45;user birthdate -->
<g id="edge17" class="edge"><title>age at&#45;&#45;user birthdate</title>
<path fill="none" stroke="black" d="M534.388,-73.1159C525.8,-61.9827 514.34,-47.127 505.6,-35.7973"/>
</g>
<!-- today -->
<g id="node19" class="node"><title>today</title>
<ellipse fill="none" stroke="black" cx="600.642" cy="-18" rx="30.5947" ry="18"/>
<text text-anchor="middle" x="600.642" y="-14.3" font-family="Times,serif" font-size="14.00">today</text>
</g>
<!-- age at&#45;&#45;today -->
<g id="edge18" class="edge"><title>age at&#45;&#45;today</title>
<path fill="none" stroke="black" d="M558.895,-73.1159C567.733,-61.66 579.611,-46.2627 588.437,-34.8212"/>
</g>
</g>
</svg>
