<?xml version="1.0" standalone="no"?>
<!DOCTYPE svg PUBLIC "-//W3C//DTD SVG 1.1//EN" "http://www.w3.org/Graphics/SVG/1.1/DTD/svg11.dtd">
<svg width="100%" height="100%" viewBox="0 0 842 596" version="1.1" xmlns="http://www.w3.org/2000/svg" xmlns:xlink="http://www.w3.org/1999/xlink" xml:space="preserve" style="fill-rule:evenodd;clip-rule:evenodd;stroke-miterlimit:2.61313;">
    <g id="þÿ">
        <rect x="53.01" y="163.895" width="114.276" height="245.001" style="fill:rgb(179,179,179);stroke-width:0.87px;stroke:rgb(179,179,179);"/>
        <rect x="50.412" y="161.298" width="114.276" height="245.001" style="fill:white;stroke-width:0.87px;stroke:white;"/>
        <path d="M50.413,189.866L163.823,189.866M50.413,161.297L163.823,161.297L163.823,405.433L50.413,405.433L50.413,161.297Z" style="fill:none;stroke-width:0.87px;stroke:black;"/>
        <rect x="391.509" y="276.44" width="109.081" height="55.406" style="fill:rgb(179,179,179);stroke-width:0.87px;stroke:rgb(179,179,179);"/>
        <rect x="388.912" y="273.843" width="109.082" height="55.406" style="fill:white;stroke-width:0.87px;stroke:white;"/>
        <path d="M388.913,273.842L497.129,273.842L497.129,328.383L388.913,328.383L388.913,273.842ZM388.913,289.425L497.129,289.425" style="fill:none;stroke-width:0.87px;stroke:black;"/>
        <rect x="533.488" y="262.588" width="100.424" height="96.962" style="fill:rgb(179,179,179);stroke-width:0.87px;stroke:rgb(179,179,179);"/>
        <rect x="530.891" y="259.991" width="100.424" height="96.962" style="fill:white;stroke-width:0.87px;stroke:white;"/>
        <path d="M530.893,259.99L630.452,259.99L630.452,356.086L530.893,356.086L530.893,259.99ZM530.893,275.573L630.452,275.573" style="fill:none;stroke-width:0.87px;stroke:black;"/>
        <rect x="709.231" y="320.592" width="83.975" height="45.018" style="fill:rgb(179,179,179);stroke-width:0.87px;stroke:rgb(179,179,179);"/>
        <rect x="706.634" y="317.995" width="83.975" height="45.018" style="fill:white;stroke-width:0.87px;stroke:white;"/>
        <path d="M706.636,317.994L789.746,317.994L789.746,362.146L706.636,362.146L706.636,317.994ZM706.636,333.577L789.746,333.577" style="fill:none;stroke-width:0.87px;stroke:black;"/>
        <rect x="710.962" y="231.422" width="77.915" height="68.392" style="fill:rgb(179,179,179);stroke-width:0.87px;stroke:rgb(179,179,179);"/>
        <rect x="708.365" y="228.825" width="77.916" height="68.393" style="fill:white;stroke-width:0.87px;stroke:white;"/>
        <path d="M708.367,228.824L785.417,228.824L785.417,296.351L708.367,296.351L708.367,228.824ZM708.367,257.393L785.417,257.393" style="fill:none;stroke-width:0.87px;stroke:black;"/>
        <rect x="472.887" y="375.998" width="71.855" height="24.24" style="fill:rgb(179,179,179);stroke-width:0.87px;stroke:rgb(179,179,179);"/>
        <rect x="470.29" y="373.401" width="71.855" height="24.24" style="fill:white;stroke-width:0.87px;stroke:white;"/>
        <path d="M470.291,373.401L541.281,373.401L541.281,396.775L470.291,396.775L470.291,373.401ZM470.291,388.984L541.281,388.984" style="fill:none;stroke-width:0.87px;stroke:black;"/>
        <rect x="479.813" y="159.567" width="42.421" height="42.421" style="fill:rgb(179,179,179);stroke-width:0.87px;stroke:rgb(179,179,179);"/>
        <rect x="477.216" y="156.969" width="42.42" height="42.421" style="fill:white;stroke-width:0.87px;stroke:white;"/>
        <path d="M477.217,172.551L518.773,172.551M477.217,156.968L518.773,156.968L518.773,198.523L477.217,198.523L477.217,156.968ZM477.217,190.732L518.773,190.732" style="fill:none;stroke-width:0.87px;stroke:black;"/>
        <path d="M630.452,279.902L708.367,279.902M708.367,279.902L704.038,282.499M704.038,277.305L708.367,279.902" style="fill:none;stroke-width:0.87px;stroke:rgb(66,66,66);"/>
        <path d="M585.434,225.361L585.434,259.99M507.518,225.361L585.434,225.361M507.518,204.584L507.518,225.361M510.981,204.584L507.518,198.523L504.055,204.584L510.981,204.584Z" style="fill:none;stroke-width:0.87px;stroke:rgb(66,66,66);"/>
        <path d="M630.452,343.1L706.636,343.1M706.636,343.1L702.307,345.697M702.307,340.503L706.636,343.1" style="fill:none;stroke-width:0.87px;stroke:rgb(66,66,66);"/>
        <g>
            <text x="52.144px" y="324.92px" style="font-family:Arial;font-size:8.657px;fill:rgb(41,0,0);">F</text>
            <text x="57.459px" y="324.92px" style="font-family:Arial;font-size:8.657px;fill:rgb(41,0,0);">A</text>
            <text x="62.259px" y="324.92px" style="font-family:Arial;font-size:8.657px;fill:rgb(41,0,0);">VORI<tspan x="83.529px " y="324.92px ">T</tspan>E_S<tspan x="105.285px " y="324.92px ">I</tspan>TE_<tspan x="123.673px " y="324.92px ">N</tspan>AME<tspan x="148.789px " y="324.92px ">_</tspan>1 </text>
            <text x="52.144px" y="335.309px" style="font-family:Arial;font-size:8.657px;fill:rgb(41,0,0);">F</text>
            <text x="57.459px" y="335.309px" style="font-family:Arial;font-size:8.657px;fill:rgb(41,0,0);">A</text>
            <text x="62.259px" y="335.309px" style="font-family:Arial;font-size:8.657px;fill:rgb(41,0,0);">VORI<tspan x="83.529px " y="335.309px ">T</tspan>E_S<tspan x="105.285px " y="335.309px ">I</tspan>TE_<tspan x="123.673px " y="335.309px ">N</tspan>AME<tspan x="148.789px " y="335.309px ">_</tspan>2 </text>
            <text x="52.144px" y="345.697px" style="font-family:Arial;font-size:8.657px;fill:rgb(41,0,0);">F</text>
            <text x="57.459px" y="345.697px" style="font-family:Arial;font-size:8.657px;fill:rgb(41,0,0);">A</text>
            <text x="62.259px" y="345.697px" style="font-family:Arial;font-size:8.657px;fill:rgb(41,0,0);">VORI<tspan x="83.529px " y="345.697px ">T</tspan>E_S<tspan x="105.285px " y="345.697px ">I</tspan>TE_<tspan x="123.673px " y="345.697px ">N</tspan>AME<tspan x="148.789px " y="345.697px ">_</tspan>3 </text>
            <text x="52.144px" y="356.086px" style="font-family:Arial;font-size:8.657px;fill:rgb(41,0,0);">F</text>
            <text x="57.432px" y="356.086px" style="font-family:Arial;font-size:8.657px;fill:rgb(41,0,0);">A</text>
            <text x="62.206px" y="356.086px" style="font-family:Arial;font-size:8.657px;fill:rgb(41,0,0);">VORITE_SITE_URL_1 </text>
            <text x="52.144px" y="366.475px" style="font-family:Arial;font-size:8.657px;fill:rgb(41,0,0);">F</text>
            <text x="57.515px" y="366.475px" style="font-family:Arial;font-size:8.657px;fill:rgb(41,0,0);">A</text>
            <text x="62.373px" y="366.475px" style="font-family:Arial;font-size:8.657px;fill:rgb(41,0,0);">VO<tspan x="75.047px 81.382px 83.87px 89.242px 95.099px 99.997px 105.854px 108.342px 113.714px 119.571px 124.469px 130.804px 137.139px 142.036px 146.934px " y="366.475px 366.475px 366.475px 366.475px 366.475px 366.475px 366.475px 366.475px 366.475px 366.475px 366.475px 366.475px 366.475px 366.475px 366.475px ">RITE_SITE_URL_2</tspan> </text>
            <text x="52.144px" y="376.864px" style="font-family:Arial;font-size:8.657px;fill:rgb(41,0,0);">F</text>
            <text x="57.432px" y="376.864px" style="font-family:Arial;font-size:8.657px;fill:rgb(41,0,0);">A</text>
            <text x="62.206px" y="376.864px" style="font-family:Arial;font-size:8.657px;fill:rgb(41,0,0);">VORITE_SITE_URL_3</text>
        </g>
        <text x="52.144px" y="314.531px" style="font-family:Arial;font-size:8.657px;fill:rgb(41,0,0);">EMAILS_PREFERENCES</text>
        <text x="52.144px" y="304.142px" style="font-family:Arial;font-size:8.657px;fill:rgb(41,0,0);">EMAIL_ACCEPTED</text>
        <text x="52.144px" y="293.754px" style="font-family:Arial;font-size:8.657px;fill:rgb(41,0,0);">PHONE_NUMBER</text>
        <text x="52.144px" y="252.198px" style="font-family:Arial;font-size:8.657px;fill:rgb(41,0,0);">ACCOUNT_ID</text>
        <g>
            <text x="52.144px" y="210.644px" style="font-family:Arial;font-size:8.657px;fill:rgb(41,0,0);">FIRST_NAME </text>
            <text x="52.144px" y="221.032px" style="font-family:Arial;font-size:8.657px;fill:rgb(41,0,0);">LAST_NAME</text>
        </g>
        <text x="52.144px" y="397.641px" style="font-family:Arial;font-size:8.657px;fill:rgb(41,0,0);">PA<tspan x="63.693px " y="397.641px ">S</tspan>SWORD</text>
        <text x="52.144px" y="272.976px" style="font-family:Arial;font-size:8.657px;fill:rgb(41,0,0);">LANGUAGE</text>
        <text x="52.144px" y="241.81px" style="font-family:Arial;font-size:8.657px;fill:rgb(41,0,0);">BIRT<tspan x="71.863px " y="241.81px ">H</tspan>DAT<tspan x="95.429px " y="241.81px ">E</tspan></text>
        <text x="52.144px" y="231.421px" style="font-family:Arial;font-size:8.657px;fill:rgb(41,0,0);">FULLNAME</text>
        <text x="52.144px" y="283.365px" style="font-family:Arial;font-size:8.657px;fill:rgb(41,0,0);">TIMEZONE</text>
        <text x="52.144px" y="200.255px" style="font-family:Arial;font-size:8.657px;fill:rgb(41,0,0);">USER_ID</text>
        <text x="52.144px" y="387.252px" style="font-family:Arial;font-size:8.657px;fill:rgb(41,0,0);">LOGIN</text>
        <text x="52.144px" y="262.587px" style="font-family:Arial;font-size:8.657px;fill:rgb(41,0,0);">EMAIL</text>
        <g>
            <text x="75.269px" y="171.686px" style="font-family:Arial;font-size:8.657px;fill:black;">Â«enumerationÂ» </text>
            <text x="73.056px" y="184.672px" style="font-family:Arial;font-size:8.657px;font-weight:700;fill:black;">SampleFieldId</text>
        </g>
        <g>
            <text x="390.645px" y="299.814px" style="font-family:Arial;font-size:8.657px;fill:rgb(41,0,0);">-firstName : String [1] </text>
            <text x="390.645px" y="310.202px" style="font-family:Arial;font-size:8.657px;fill:rgb(41,0,0);">-lastName : String [1] </text>
            <text x="390.645px" y="320.591px" style="font-family:Arial;font-size:8.657px;fill:rgb(41,0,0);">-birthDate : LocalDate [1]</text>
        </g>
        <text x="431.334px" y="284.231px" style="font-family:Arial;font-size:8.657px;font-weight:700;fill:black;">User</text>
        <g>
            <text x="532.624px" y="285.962px" style="font-family:Arial;font-size:8.657px;fill:rgb(41,0,0);">-login : String </text>
            <text x="532.624px" y="296.351px" style="font-family:Arial;font-size:8.657px;fill:rgb(41,0,0);">-password : String </text>
            <text x="532.624px" y="306.74px" style="font-family:Arial;font-size:8.657px;fill:rgb(41,0,0);">-timezone : T<tspan x="583.137px 585.061px " y="306.74px 306.74px ">im</tspan>ezone -</text>
            <text x="532.624px" y="317.128px" style="font-family:Arial;font-size:8.657px;fill:rgb(41,0,0);">language : Language -</text>
            <text x="532.624px" y="327.517px" style="font-family:Arial;font-size:8.657px;fill:rgb(41,0,0);">phoneNumber : String </text>
            <text x="532.624px" y="337.906px" style="font-family:Arial;font-size:8.657px;fill:rgb(41,0,0);">-email : String </text>
            <text x="532.624px" y="348.294px" style="font-family:Arial;font-size:8.657px;fill:rgb(41,0,0);">-acceptEmail : Boolean</text>
        </g>
        <text x="560.327px" y="270.379px" style="font-family:Arial;font-size:8.657px;font-weight:700;fill:black;">Account</text>
        <g>
            <text x="708.367px" y="343.966px" style="font-family:Arial;font-size:8.657px;fill:rgb(41,0,0);">-url : String </text>
            <text x="708.367px" y="354.355px" style="font-family:Arial;font-size:8.657px;fill:rgb(41,0,0);">-name : String</text>
        </g>
        <text x="709.233px" y="328.383px" style="font-family:Arial;font-size:8.657px;font-weight:700;fill:black;">FavoriteWe<tspan x="755.895px " y="328.383px ">b</tspan>site</text>
        <g>
            <text x="710.099px" y="278.17px" style="font-family:Arial;font-size:8.657px;fill:rgb(41,0,0);">ADMINISTRAT<tspan x="768.774px 775.508px " y="278.17px 278.17px ">OR</tspan> </text>
            <text x="710.099px" y="288.559px" style="font-family:Arial;font-size:8.657px;fill:rgb(41,0,0);">NEWSLETTER</text>
        </g>
        <g>
            <text x="710.099px" y="267.782px" style="font-family:Arial;font-size:8.657px;fill:rgb(41,0,0);">PRIV</text>
            <text x="730.304px" y="267.782px" style="font-family:Arial;font-size:8.657px;fill:rgb(41,0,0);">A</text>
            <text x="734.578px" y="267.782px" style="font-family:Arial;font-size:8.657px;fill:rgb(41,0,0);">TE</text>
        </g>
        <g>
            <text x="715.293px" y="239.213px" style="font-family:Arial;font-size:8.657px;fill:black;">Â«enumerationÂ» </text>
            <text x="721.903px" y="252.198px" style="font-family:Arial;font-size:8.657px;font-weight:700;fill:black;">EmailTy<tspan x="755.102px " y="252.198px ">p</tspan>e</text>
        </g>
        <text x="472.889px" y="383.789px" style="font-family:Arial;font-size:8.657px;font-weight:700;fill:black;">SampleModel</text>
        <text x="478.948px" y="182.94px" style="font-family:Arial;font-size:8.657px;fill:rgb(41,0,0);">-id : long</text>
        <text x="479.814px" y="167.357px" style="font-family:Arial;font-size:8.657px;font-weight:700;fill:black;">Identity</text>
        <g>
            <text x="654.692px" y="274.708px" style="font-family:Arial;font-size:8.657px;fill:black;">-emailTy<tspan x="687.878px " y="274.708px ">p</tspan>es </text>
            <text x="684.127px" y="290.291px" style="font-family:Arial;font-size:8.657px;fill:black;">*</text>
        </g>
        <g>
            <text x="646.9px" y="337.906px" style="font-family:Arial;font-size:8.657px;fill:black;">-top3We<tspan x="679.618px " y="337.906px ">b</tspan>Site </text>
            <text x="682.395px" y="353.489px" style="font-family:Arial;font-size:8.657px;fill:black;">*</text>
        </g>
        <text x="410.556px" y="344.832px" style="font-family:Arial;font-size:8.657px;fill:black;">-user</text>
        <text x="589.762px" y="378.595px" style="font-family:Arial;font-size:8.657px;fill:black;">-account</text>
        <path d="M489.337,204.584L485.874,198.523L482.412,204.584L489.337,204.584ZM485.874,204.584L485.874,225.361M485.874,225.361L441.723,225.361M441.723,225.361L441.723,273.842" style="fill:none;stroke-width:0.87px;stroke:rgb(66,66,66);"/>
        <path d="M439.125,332.711L441.723,328.383M441.723,328.383L444.319,332.711M470.291,383.789L441.723,383.789M441.723,383.789L441.723,328.383" style="fill:none;stroke-width:0.87px;stroke:rgb(66,66,66);"/>
        <path d="M581.971,389.849L581.971,356.086M541.281,389.849L581.971,389.849M581.971,356.086L584.568,360.415M579.374,360.415L581.971,356.086" style="fill:none;stroke-width:0.87px;stroke:rgb(66,66,66);"/>
    </g>
</svg>
