<?xml version="1.0" standalone="no"?>
<!DOCTYPE svg PUBLIC "-//W3C//DTD SVG 1.1//EN" "http://www.w3.org/Graphics/SVG/1.1/DTD/svg11.dtd">
<svg width="100%" height="100%" viewBox="0 0 842 596" version="1.1" xmlns="http://www.w3.org/2000/svg" xmlns:xlink="http://www.w3.org/1999/xlink" xml:space="preserve" style="fill-rule:evenodd;clip-rule:evenodd;stroke-miterlimit:2.61313;">
    <g id="þÿ">
        <rect x="53.01" y="163.895" width="114.276" height="245.001" style="fill:rgb(179,179,179);stroke-width:0.87px;stroke:rgb(179,179,179);"/>
        <rect x="50.412" y="161.298" width="114.276" height="245.001" style="fill:white;stroke-width:0.87px;stroke:white;"/>
        <path d="M50.413,189.866L163.823,189.866M50.413,161.297L163.823,161.297L163.823,405.433L50.413,405.433L50.413,161.297Z" style="fill:none;stroke-width:0.87px;stroke:black;"/>
        <rect x="391.509" y="276.44" width="109.081" height="55.406" style="fill:rgb(179,179,179);stroke-width:0.87px;stroke:rgb(179,179,179);"/>
        <rect x="388.912" y="273.843" width="109.082" height="55.406" style="fill:white;stroke-width:0.87px;stroke:white;"/>
        <path d="M388.913,273.842L497.129,273.842L497.129,328.383L388.913,328.383L388.913,273.842ZM388.913,289.425L497.129,289.425" style="fill:none;stroke-width:0.87px;stroke:black;"/>
        <rect x="533.488" y="262.588" width="100.424" height="96.962" style="fill:rgb(179,179,179);stroke-width:0.87px;stroke:rgb(179,179,179);"/>
        <rect x="530.891" y="259.991" width="100.424" height="96.962" style="fill:white;stroke-width:0.87px;stroke:white;"/>
        <path d="M530.893,259.99L630.452,259.99L630.452,356.086L530.893,356.086L530.893,259.99ZM530.893,275.573L630.452,275.573" style="fill:none;stroke-width:0.87px;stroke:black;"/>
        <rect x="709.231" y="320.592" width="83.975" height="45.018" style="fill:rgb(179,179,179);stroke-width:0.87px;stroke:rgb(179,179,179);"/>
        <rect x="706.634" y="317.995" width="83.975" height="45.018" style="fill:white;stroke-width:0.87px;stroke:white;"/>
        <path d="M706.636,317.994L789.746,317.994L789.746,362.146L706.636,362.146L706.636,317.994ZM706.636,333.577L789.746,333.577" style="fill:none;stroke-width:0.87px;stroke:black;"/>
        <rect x="710.962" y="231.422" width="77.915" height="68.392" style="fill:rgb(179,179,179);stroke-width:0.87px;stroke:rgb(179,179,179);"/>
        <rect x="708.365" y="228.825" width="77.916" height="68.393" style="fill:white;stroke-width:0.87px;stroke:white;"/>
        <path d="M708.367,228.824L785.417,228.824L785.417,296.351L708.367,296.351L708.367,228.824ZM708.367,257.393L785.417,257.393" style="fill:none;stroke-width:0.87px;stroke:black;"/>
        <rect x="472.887" y="375.998" width="71.855" height="24.24" style="fill:rgb(179,179,179);stroke-width:0.87px;stroke:rgb(179,179,179);"/>
        <rect x="470.29" y="373.401" width="71.855" height="24.24" style="fill:white;stroke-width:0.87px;stroke:white;"/>
        <path d="M470.291,373.401L541.281,373.401L541.281,396.775L470.291,396.775L470.291,373.401ZM470.291,388.984L541.281,388.984" style="fill:none;stroke-width:0.87px;stroke:black;"/>
        <rect x="479.813" y="159.567" width="42.421" height="42.421" style="fill:rgb(179,179,179);stroke-width:0.87px;stroke:rgb(179,179,179);"/>
        <rect x="477.216" y="156.969" width="42.42" height="42.421" style="fill:white;stroke-width:0.87px;stroke:white;"/>
        <path d="M477.217,172.551L518.773,172.551M477.217,156.968L518.773,156.968L518.773,198.523L477.217,198.523L477.217,156.968ZM477.217,190.732L518.773,190.732" style="fill:none;stroke-width:0.87px;stroke:black;"/>
        <path d="M630.452,279.902L708.367,279.902M708.367,279.902L704.038,282.499M704.038,277.305L708.367,279.902" style="fill:none;stroke-width:0.87px;stroke:rgb(66,66,66);"/>
        <path d="M585.434,225.361L585.434,259.99M507.518,225.361L585.434,225.361M507.518,204.584L507.518,225.361M510.981,204.584L507.518,198.523L504.055,204.584L510.981,204.584Z" style="fill:none;stroke-width:0.87px;stroke:rgb(66,66,66);"/>
        <path d="M630.452,343.1L706.636,343.1M706.636,343.1L702.307,345.697M702.307,340.503L706.636,343.1" style="fill:none;stroke-width:0.87px;stroke:rgb(66,66,66);"/>
        <g>
            <text x="52.144px" y="324.92px" style="font-family:Arial;font-size:8.657px;fill:rgb(41,0,0);">F</text>
            <text x="57.459px" y="324.92px" style="font-family:Arial;font-size:8.657px;fill:rgb(41,0,0);">A</text>
            <text x="62.259px" y="324.92px" style="font-family:Arial;font-size:8.657px;fill:rgb(41,0,0);">VORI<tspan x="83.529px " y="324.92px ">T</tspan>E_S<tspan x="105.285px " y="324.92px ">I</tspan>TE_<tspan x="123.673px " y="324.92px ">N</tspan>AME<tspan x="148.789px " y="324.92px ">_</tspan>1 </text>
            <text x="52.144px" y="335.309px" style="font-family:Arial;font-size:8.657px;fill:rgb(41,0,0);">F</text>
            <text x="57.459px" y="335.309px" style="font-family:Arial;font-size:8.657px;fill:rgb(41,0,0);">A</text>
            <text x="62.259px" y="335.309px" style="font-family:Arial;font-size:8.657px;fill:rgb(41,0,0);">VORI<tspan x="83.529px " y="335.309px ">T</tspan>E_S<tspan x="105.285px " y="335.309px ">I</tspan>TE_<tspan x="123.673px " y="335.309px ">N</tspan>AME<tspan x="148.789px " y="335.309px ">_</tspan>2 </text>
            <text x="52.144px" y="345.697px" style="font-family:Arial;font-size:8.657px;fill:rgb(41,0,0);">F</text>
            <text x="57.459px" y="345.697px" style="font-family:Arial;font-size:8.657px;fill:rgb(41,0,0);">A</text>
            <text x="62.259px" y="345.697px" style="font-family:Arial;font-size:8.657px;fill:rgb(41,0,0);">VORI<tspan x="83.529px " y="345.697px ">T</tspan>E_S<tspan x="105.285px " y="345.697px ">I</tspan>TE_<tspan x="123.673px " y="345.697px ">N</tspan>AME<tspan x="148.789px " y="345.697px ">_</tspan>3 </text>
            <text x="52.144px" y="356.086px" style="font-family:Arial;font-size:8.657px;fill:rgb(41,0,0);">F</text>
            <text x="57.432px" y="356.086px" style="font-family:Arial;font-size:8.657px;fill:rgb(41,0,0);">A</text>
            <text x="62.206px" y="356.086px" style="font-family:Arial;font-size:8.657px;fill:rgb(41,0,0);">VORITE_SITE_URL_1 </text>
            <text x="52.144px" y="366.475px" style="font-family:Arial;font-size:8.657px;fill:rgb(41,0,0);">F</text>
            <text x="57.515px" y="366.475px" style="font-family:Arial;font-size:8.657px;fill:rgb(41,0,0);">A</text>
            <text x="62.373px" y="366.475px" style="font-family:Arial;font-size:8.657px;fill:rgb(41,0,0);">VO<tspan x="75.047px 81.382px 83.87px 89.242px 95.099px 99.997px 105.854px 108.342px 113.714px 119.571px 124.469px 130.804px 137.139px 142.036px 146.934px " y="366.475px 366.475px 366.475px 366.475px 366.475px 366.475px 366.475px 366.475px 366.475px 366.475px 366.475px 366.475px 366.475px 366.475px 366.475px ">RITE_SITE_URL_2</tspan> </text>
            <text x="52.144px" y="376.864px" style="font-family:Arial;font-size:8.657px;fill:rgb(41,0,0);">F</text>
            <text x="57.432px" y="376.864px" style="font-family:Arial;font-size:8.657px;fill:rgb(41,0,0);">A</text>
            <text x="62.206px" y="376.864px" style="font-family:Arial;font-size:8.657px;fill:rgb(41,0,0);">VORITE_SITE_URL_3</text>
        </g>
        <text x="52.144px" y="314.531px" style="font-family:Arial;font-size:8.657px;fill:rgb(41,0,0);">EMAILS_PREFERENCES</text>
        <text x="52.144px" y="304.142px" style="font-family:Arial;font-size:8.657px;fill:rgb(41,0,0);">EMAIL_ACCEPTED</text>
        <text x="52.144px" y="293.754px" style="font-family:Arial;font-size:8.657px;fill:rgb(41,0,0);">PHONE_NUMBER</text>
        <text x="52.144px" y="252.198px" style="font-family:Arial;font-size:8.657px;fill:rgb(41,0,0);">ACCOUNT_ID</text>
        <g>
            <text x="52.144px" y="210.644px" style="font-family:Arial;font-size:8.657px;fill:rgb(41,0,0);">FIRST_NAME </text>
            <text x="52.144px" y="221.032px" style="font-family:Arial;font-size:8.657px;fill:rgb(41,0,0);">LAST_NAME</text>
        </g>
        <text x="52.144px" y="397.641px" style="font-family:Arial;font-size:8.657px;fill:rgb(41,0,0);">PA<tspan x="63.693px " y="397.641px ">S</tspan>SWORD</text>
        <text x="52.144px" y="272.976px" style="font-family:Arial;font-size:8.657px;fill:rgb(41,0,0);">LANGUAGE</text>
        <text x="52.144px" y="241.81px" style="font-family:Arial;font-size:8.657px;fill:rgb(41,0,0);">BIRT<tspan x="71.863px " y="241.81px ">H</tspan>DAT<tspan x="95.429px " y="241.81px ">E</tspan></text>
        <text x="52.144px" y="231.421px" style="font-family:Arial;font-size:8.657px;fill:rgb(41,0,0);">FULLNAME</text>
        <text x="52.144px" y="283.365px" style="font-family:Arial;font-size:8.657px;fill:rgb(41,0,0);">TIMEZONE</text>
        <text x="52.144px" y="200.255px" style="font-family:Arial;font-size:8.657px;fill:rgb(41,0,0);">USER_ID</text>
        <text x="52.144px" y="387.252px" style="font-family:Arial;font-size:8.657px;fill:rgb(41,0,0);">LOGIN</text>
        <text x="52.144px" y="262.587px" style="font-family:Arial;font-size:8.657px;fill:rgb(41,0,0);">EMAIL</text>
        <g>
            <text x="75.269px" y="171.686px" style="font-family:Arial;font-size:8.657px;fill:black;">Â«enumerationÂ» </text>
            <text x="73.056px" y="184.672px" style="font-family:Arial;font-size:8.657px;font-weight:700;fill:black;">SampleFieldId</text>
        </g>
        <g>
            <text x="390.645px" y="299.814px" style="font-family:Arial;font-size:8.657px;fill:rgb(41,0,0);">-firstName : String [1] </text>
            <text x="390.645px" y="310.202px" style="font-family:Arial;font-size:8.657px;fill:rgb(41,0,0);">-lastName : String [1] </text>
            <text x="390.645px" y="320.591px" style="font-family:Arial;font-size:8.657px;fill:rgb(41,0,0);">-birthDate : LocalDate [1]</text>
        </g>
        <text x="431.334px" y="284.231px" style="font-family:Arial;font-size:8.657px;font-weight:700;fill:black;">User</text>
        <g>
            <text x="532.624px" y="285.962px" style="font-family:Arial;font-size:8.657px;fill:rgb(41,0,0);">-login : String </text>
            <text x="532.624px" y="296.351px" style="font-family:Arial;font-size:8.657px;fill:rgb(41,0,0);">-password : String </text>
            <text x="532.624px" y="306.74px" style="font-family:Arial;font-size:8.657px;fill:rgb(41,0,0);">-timezone : T<tspan x="583.137px 585.061px " y="306.74px 306.74px ">im</tspan>ezone -</text>
            <text x="532.624px" y="317.128px" style="font-family:Arial;font-size:8.657px;fill:rgb(41,0,0);">language : Language -</text>
            <text x="532.624px" y="327.517px" style="font-family:Arial;font-size:8.657px;fill:rgb(41,0,0);">phoneNumber : String </text>
            <text x="532.624px" y="337.906px" style="font-family:Arial;font-size:8.657px;fill:rgb(41,0,0);">-email : String </text>
            <text x="532.624px" y="348.294px" style="font-family:Arial;font-size:8.657px;fill:rgb(41,0,0);">-acceptEmail : Boolean</text>
        </g>
        <text x="560.327px" y="270.379px" style="font-family:Arial;font-size:8.657px;font-weight:700;fill:black;">Account</text>
        <g>
            <text x="708.367px" y="343.966px" style="font-family:Arial;font-size:8.657px;fill:rgb(41,0,0);">-url : String </text>
            <text x="708.367px" y="354.355px" style="font-family:Arial;font-size:8.657px;fill:rgb(41,0,0);">-name : String</text>
        </g>
        <text x="709.233px" y="328.383px" style="font-family:Arial;font-size:8.657px;font-weight:700;fill:black;">FavoriteWe<tspan x="755.895px " y="328.383px ">b</tspan>site</text>
        <g>
            <text x="710.099px" y="278.17px" style="font-family:Arial;font-size:8.657px;fill:rgb(41,0,0);">ADMINISTRAT<tspan x="768.774px 775.508px " y="278.17px 278.17px ">OR</tspan> </text>
            <text x="710.099px" y="288.559px" style="font-family:Arial;font-size:8.657px;fill:rgb(41,0,0);">NEWSLETTER</text>
        </g>
        <g>
            <text x="710.099px" y="267.782px" style="font-family:Arial;font-size:8.657px;fill:rgb(41,0,0);">PRIV</text>
            <text x="730.304px" y="267.782px" style="font-family:Arial;font-size:8.657px;fill:rgb(41,0,0);">A</text>
            <text x="734.578px" y="267.782px" style="font-family:Arial;font-size:8.657px;fill:rgb(41,0,0);">TE</text>
        </g>
        <g>
            <text x="715.293px" y="239.213px" style="font-family:Arial;font-size:8.657px;fill:black;">Â«enumerationÂ» </text>
            <text x="721.903px" y="252.198px" style="font-family:Arial;font-size:8.657px;font-weight:700;fill:black;">EmailTy<tspan x="755.102px " y="252.198px ">p</tspan>e</text>
        </g>
        <text x="472.889px" y="383.789px" style="font-family:Arial;font-size:8.657px;font-weight:700;fill:black;">SampleModel</text>
        <text x="478.948px" y="182.94px" style="font-family:Arial;font-size:8.657px;fill:rgb(41,0,0);">-id : long</text>
        <text x="479.814px" y="167.357px" style="font-family:Arial;font-size:8.657px;font-weight:700;fill:black;">Identity</text>
        <g>
            <text x="654.692px" y="274.708px" style="font-family:Arial;font-size:8.657px;fill:black;">-emailTy<tspan x="687.878px " y="274.708px ">p</tspan>es </text>
            <text x="684.127px" y="290.291px" style="font-family:Arial;font-size:8.657px;fill:black;">*</text>
        </g>
        <g>
            <text x="646.9px" y="337.906px" style="font-family:Arial;font-size:8.657px;fill:black;">-top3We<tspan x="679.618px " y="337.906px ">b</tspan>Site </text>
            <text x="682.395px" y="353.489px" style="font-family:Arial;font-size:8.657px;fill:black;">*</text>
        </g>
        <text x="410.556px" y="344.832px" style="font-family:Arial;font-size:8.657px;fill:black;">-user</text>
        <text x="589.762px" y="378.595px" style="font-family:Arial;font-size:8.657px;fill:black;">-account</text>
        <path d="M489.337,204.584L485.874,198.523L482.412,204.584L489.337,204.584ZM485.874,204.584L485.874,225.361M485.874,225.361L441.723,225.361M441.723,225.361L441.723,273.842" style="fill:none;stroke-width:0.87px;stroke:rgb(66,66,66);"/>
        <path d="M439.125,332.711L441.723,328.383M441.723,328.383L444.319,332.711M470.291,383.789L441.723,383.789M441.723,383.789L441.723,328.383" style="fill:none;stroke-width:0.87px;stroke:rgb(66,66,66);"/>
        <path d="M581.971,389.849L581.971,356.086M541.281,389.849L581.971,389.849M581.971,356.086L584.568,360.415M579.374,360.415L581.971,356.086" style="fill:none;stroke-width:0.87px;stroke:rgb(66,66,66);"/>
    </g>
    <g id="þÿ">
        <clipPath id="_clip1">
            <path d="M386.087,270.63L472.867,270.63L472.867,151.595L527.005,151.595L527.005,270.63L504.778,270.63L504.778,334.222L386.087,334.222L386.087,270.63Z"/>
        </clipPath>
        <g clip-path="url(#_clip1)">
            <rect x="314.087" y="79.595" width="284.918" height="326.627" style="fill:rgb(224,255,224);"/>
            <g id="þÿ1">
                <rect x="391.509" y="276.44" width="109.081" height="55.406" style="fill:rgb(171,201,171);stroke-width:0.87px;stroke:rgb(171,201,171);"/>
                <rect x="388.912" y="273.843" width="109.082" height="55.406" style="fill:rgb(224,255,224);stroke-width:0.87px;stroke:rgb(224,255,224);"/>
                <path d="M388.913,273.842L497.129,273.842L497.129,328.383L388.913,328.383L388.913,273.842ZM388.913,289.425L497.129,289.425" style="fill:none;stroke-width:0.87px;stroke:rgb(46,77,46);"/>
                <path d="M390.919,297.954L390.919,297.189L393.258,297.189L393.258,297.954L390.919,297.954ZM394.279,299.814L394.279,295.917L393.608,295.917L393.608,295.325L394.279,295.325L394.279,294.847C394.279,294.546 394.307,294.321 394.36,294.175C394.434,293.977 394.562,293.817 394.746,293.695C394.931,293.572 395.19,293.511 395.523,293.511C395.736,293.511 395.973,293.536 396.233,293.588L396.119,294.252C395.961,294.223 395.811,294.208 395.67,294.208C395.439,294.208 395.276,294.257 395.181,294.357C395.084,294.455 395.036,294.64 395.036,294.911L395.036,295.325L395.911,295.325L395.911,295.917L395.036,295.917L395.036,299.814L394.279,299.814ZM396.507,294.493L396.507,293.617L397.268,293.617L397.268,294.493L396.507,294.493ZM396.507,299.814L396.507,295.325L397.268,295.325L397.268,299.814L396.507,299.814ZM398.418,299.814L398.418,295.325L399.103,295.325L399.103,296.005C399.277,295.687 399.439,295.476 399.587,295.376C399.734,295.275 399.897,295.223 400.075,295.223C400.332,295.223 400.592,295.305 400.857,295.468L400.594,296.175C400.41,296.064 400.224,296.009 400.037,296.009C399.87,296.009 399.721,296.06 399.589,296.159C399.456,296.26 399.362,296.399 399.306,296.576C399.221,296.846 399.179,297.142 399.179,297.463L399.179,299.814L398.418,299.814ZM401.006,298.473L401.757,298.355C401.799,298.657 401.918,298.887 402.111,299.049C402.303,299.209 402.572,299.29 402.92,299.29C403.269,299.29 403.529,299.218 403.698,299.076C403.867,298.934 403.952,298.766 403.952,298.576C403.952,298.403 403.877,298.269 403.727,298.169C403.623,298.101 403.363,298.016 402.949,297.912C402.392,297.771 402.004,297.649 401.789,297.546C401.574,297.443 401.41,297.3 401.298,297.119C401.187,296.937 401.131,296.736 401.131,296.517C401.131,296.316 401.177,296.132 401.27,295.961C401.361,295.79 401.486,295.648 401.643,295.536C401.762,295.449 401.923,295.374 402.127,295.313C402.331,295.253 402.551,295.223 402.785,295.223C403.137,295.223 403.446,295.275 403.712,295.376C403.979,295.476 404.175,295.614 404.302,295.787C404.429,295.961 404.516,296.192 404.564,296.482L403.821,296.585C403.786,296.354 403.688,296.173 403.526,296.044C403.365,295.914 403.135,295.849 402.839,295.849C402.49,295.849 402.241,295.906 402.092,296.022C401.942,296.137 401.867,296.273 401.867,296.427C401.867,296.527 401.899,296.615 401.961,296.694C402.023,296.777 402.119,296.843 402.252,296.898C402.329,296.925 402.552,296.99 402.924,297.091C403.463,297.235 403.838,297.352 404.05,297.445C404.264,297.536 404.431,297.67 404.552,297.844C404.673,298.019 404.734,298.235 404.734,298.495C404.734,298.749 404.659,298.987 404.512,299.212C404.363,299.436 404.15,299.609 403.871,299.732C403.593,299.854 403.276,299.915 402.924,299.915C402.34,299.915 401.896,299.794 401.59,299.551C401.284,299.309 401.089,298.949 401.006,298.473M407.299,299.133L407.409,299.805C407.195,299.85 407.004,299.873 406.835,299.873C406.558,299.873 406.344,299.83 406.191,299.742C406.04,299.655 405.933,299.54 405.871,299.397C405.809,299.255 405.777,298.955 405.777,298.499L405.777,295.917L405.219,295.917L405.219,295.325L405.777,295.325L405.777,294.213L406.535,293.757L406.535,295.325L407.299,295.325L407.299,295.917L406.535,295.917L406.535,298.541C406.535,298.759 406.547,298.898 406.573,298.96C406.601,299.022 406.644,299.071 406.705,299.108C406.765,299.144 406.852,299.163 406.964,299.163C407.05,299.163 407.161,299.153 407.299,299.133M408.132,299.814L408.132,293.617L408.973,293.617L412.228,298.482L412.228,293.617L413.014,293.617L413.014,299.814L412.173,299.814L408.918,294.944L408.918,299.814L408.132,299.814ZM417.224,299.26C416.942,299.499 416.671,299.668 416.411,299.768C416.15,299.866 415.87,299.915 415.571,299.915C415.077,299.915 414.7,299.795 414.434,299.554C414.17,299.313 414.037,299.004 414.037,298.631C414.037,298.41 414.086,298.209 414.187,298.028C414.287,297.846 414.418,297.7 414.58,297.59C414.743,297.481 414.925,297.397 415.128,297.341C415.277,297.302 415.502,297.263 415.803,297.227C416.418,297.153 416.871,297.067 417.161,296.964C417.164,296.86 417.165,296.794 417.165,296.766C417.165,296.456 417.093,296.237 416.949,296.111C416.756,295.938 416.466,295.853 416.083,295.853C415.725,295.853 415.461,295.915 415.29,296.041C415.119,296.166 414.994,296.388 414.912,296.707L414.169,296.605C414.236,296.287 414.348,296.029 414.502,295.834C414.656,295.638 414.881,295.487 415.174,295.381C415.467,295.276 415.806,295.223 416.193,295.223C416.577,295.223 416.887,295.269 417.126,295.358C417.366,295.449 417.542,295.562 417.656,295.699C417.768,295.836 417.846,296.008 417.893,296.217C417.917,296.347 417.93,296.58 417.93,296.918L417.93,297.932C417.93,298.641 417.946,299.088 417.979,299.274C418.011,299.462 418.076,299.642 418.171,299.814L417.376,299.814C417.298,299.656 417.246,299.472 417.224,299.26ZM417.161,297.56C416.884,297.674 416.47,297.769 415.919,297.848C415.606,297.893 415.383,297.944 415.255,298C415.125,298.056 415.024,298.139 414.955,298.248C414.884,298.356 414.848,298.476 414.848,298.609C414.848,298.813 414.926,298.981 415.079,299.117C415.232,299.251 415.457,299.319 415.753,299.319C416.046,299.319 416.307,299.255 416.535,299.127C416.763,298.998 416.932,298.822 417.038,298.6C417.121,298.429 417.161,298.175 417.161,297.84L417.161,297.56ZM419.11,299.814L419.11,295.325L419.79,295.325L419.79,295.954C419.931,295.735 420.119,295.558 420.352,295.425C420.586,295.29 420.853,295.223 421.152,295.223C421.484,295.223 421.756,295.292 421.968,295.431C422.182,295.569 422.332,295.761 422.419,296.009C422.775,295.485 423.237,295.223 423.805,295.223C424.251,295.223 424.593,295.347 424.833,295.594C425.072,295.84 425.192,296.22 425.192,296.732L425.192,299.814L424.436,299.814L424.436,296.986C424.436,296.681 424.411,296.462 424.362,296.328C424.312,296.195 424.222,296.087 424.094,296.005C423.964,295.924 423.811,295.882 423.636,295.882C423.32,295.882 423.059,295.987 422.85,296.198C422.642,296.407 422.537,296.743 422.537,297.205L422.537,299.814L421.777,299.814L421.777,296.898C421.777,296.559 421.715,296.305 421.59,296.136C421.466,295.967 421.264,295.882 420.981,295.882C420.768,295.882 420.57,295.938 420.388,296.052C420.207,296.165 420.074,296.329 419.993,296.546C419.911,296.764 419.871,297.077 419.871,297.485L419.871,299.814L419.11,299.814ZM429.393,298.368L430.18,298.465C430.056,298.925 429.826,299.281 429.491,299.535C429.155,299.788 428.727,299.915 428.206,299.915C427.549,299.915 427.029,299.713 426.645,299.309C426.26,298.905 426.068,298.338 426.068,297.608C426.068,296.852 426.262,296.266 426.651,295.849C427.04,295.432 427.544,295.223 428.164,295.223C428.764,295.223 429.255,295.427 429.634,295.836C430.015,296.244 430.206,296.82 430.206,297.56C430.206,297.606 430.204,297.674 430.201,297.763L426.854,297.763C426.881,298.257 427.021,298.635 427.272,298.896C427.523,299.159 427.835,299.29 428.21,299.29C428.489,299.29 428.727,299.216 428.924,299.069C429.122,298.923 429.278,298.69 429.393,298.368ZM426.896,297.137L429.402,297.137C429.369,296.761 429.272,296.477 429.115,296.289C428.873,295.996 428.558,295.849 428.173,295.849C427.823,295.849 427.529,295.966 427.291,296.2C427.053,296.433 426.922,296.746 426.896,297.137M433.752,296.191L433.752,295.325L434.619,295.325L434.619,296.191L433.752,296.191ZM433.752,299.814L433.752,298.947L434.619,298.947L434.619,299.814L433.752,299.814ZM438.17,297.823L438.944,297.755C438.98,298.065 439.065,298.319 439.199,298.518C439.333,298.717 439.541,298.877 439.822,299C440.103,299.123 440.421,299.183 440.773,299.183C441.086,299.183 441.361,299.137 441.601,299.045C441.841,298.951 442.019,298.824 442.136,298.662C442.253,298.499 442.312,298.323 442.312,298.131C442.312,297.937 442.256,297.768 442.142,297.622C442.03,297.476 441.843,297.355 441.585,297.257C441.418,297.192 441.051,297.091 440.481,296.954C439.913,296.817 439.513,296.689 439.285,296.567C438.989,296.413 438.769,296.22 438.623,295.99C438.479,295.761 438.407,295.504 438.407,295.218C438.407,294.907 438.495,294.614 438.672,294.343C438.85,294.07 439.109,293.864 439.45,293.722C439.792,293.582 440.17,293.511 440.587,293.511C441.047,293.511 441.451,293.585 441.803,293.734C442.154,293.881 442.424,294.099 442.612,294.386C442.8,294.673 442.902,294.999 442.917,295.362L442.131,295.422C442.087,295.031 441.945,294.733 441.701,294.534C441.457,294.334 441.097,294.234 440.621,294.234C440.125,294.234 439.764,294.325 439.536,294.507C439.31,294.689 439.196,294.908 439.196,295.163C439.196,295.387 439.276,295.57 439.437,295.713C439.595,295.857 440.007,296.005 440.673,296.155C441.34,296.306 441.797,296.437 442.045,296.55C442.406,296.717 442.673,296.928 442.845,297.182C443.017,297.437 443.102,297.732 443.102,298.064C443.102,298.394 443.008,298.704 442.819,298.996C442.63,299.287 442.359,299.514 442.005,299.677C441.651,299.838 441.253,299.919 440.812,299.919C440.251,299.919 439.78,299.838 439.402,299.674C439.023,299.511 438.725,299.266 438.509,298.936C438.294,298.609 438.18,298.237 438.17,297.823M445.787,299.133L445.896,299.805C445.683,299.85 445.491,299.873 445.322,299.873C445.045,299.873 444.832,299.83 444.679,299.742C444.527,299.655 444.42,299.54 444.358,299.397C444.296,299.255 444.264,298.955 444.264,298.499L444.264,295.917L443.706,295.917L443.706,295.325L444.264,295.325L444.264,294.213L445.022,293.757L445.022,295.325L445.787,295.325L445.787,295.917L445.022,295.917L445.022,298.541C445.022,298.759 445.035,298.898 445.061,298.96C445.088,299.022 445.131,299.071 445.192,299.108C445.253,299.144 445.339,299.163 445.452,299.163C445.537,299.163 445.648,299.153 445.787,299.133M446.523,299.814L446.523,295.325L447.206,295.325L447.206,296.005C447.381,295.687 447.543,295.476 447.691,295.376C447.838,295.275 448.001,295.223 448.179,295.223C448.436,295.223 448.696,295.305 448.961,295.468L448.698,296.175C448.513,296.064 448.328,296.009 448.141,296.009C447.974,296.009 447.825,296.06 447.693,296.159C447.56,296.26 447.466,296.399 447.41,296.576C447.325,296.846 447.283,297.142 447.283,297.463L447.283,299.814L446.523,299.814ZM449.417,294.493L449.417,293.617L450.179,293.617L450.179,294.493L449.417,294.493ZM449.417,299.814L449.417,295.325L450.179,295.325L450.179,299.814L449.417,299.814ZM451.337,299.814L451.337,295.325L452.021,295.325L452.021,295.963C452.352,295.469 452.828,295.223 453.45,295.223C453.721,295.223 453.969,295.272 454.196,295.368C454.423,295.467 454.592,295.594 454.705,295.752C454.819,295.909 454.897,296.097 454.943,296.314C454.97,296.455 454.985,296.702 454.985,297.054L454.985,299.814L454.223,299.814L454.223,297.083C454.223,296.774 454.194,296.541 454.135,296.387C454.076,296.234 453.97,296.111 453.821,296.02C453.669,295.928 453.493,295.882 453.289,295.882C452.965,295.882 452.686,295.986 452.45,296.191C452.214,296.397 452.098,296.787 452.098,297.362L452.098,299.814L451.337,299.814ZM456.012,300.186L456.752,300.296C456.782,300.524 456.869,300.69 457.009,300.795C457.198,300.935 457.456,301.005 457.782,301.005C458.136,301.005 458.407,300.935 458.599,300.795C458.791,300.653 458.919,300.456 458.987,300.203C459.028,300.048 459.045,299.723 459.042,299.226C458.71,299.618 458.296,299.814 457.799,299.814C457.182,299.814 456.705,299.591 456.367,299.146C456.029,298.701 455.859,298.166 455.859,297.544C455.859,297.116 455.937,296.72 456.091,296.358C456.247,295.996 456.472,295.716 456.767,295.518C457.061,295.322 457.407,295.223 457.804,295.223C458.334,295.223 458.771,295.438 459.114,295.866L459.114,295.325L459.817,295.325L459.817,299.205C459.817,299.903 459.745,300.4 459.603,300.691C459.46,300.982 459.235,301.213 458.927,301.382C458.618,301.551 458.238,301.636 457.787,301.636C457.251,301.636 456.819,301.515 456.49,301.274C456.159,301.033 456,300.671 456.012,300.186ZM456.641,297.489C456.641,298.078 456.758,298.508 456.993,298.778C457.227,299.049 457.52,299.183 457.872,299.183C458.221,299.183 458.514,299.049 458.751,298.781C458.987,298.511 459.105,298.089 459.105,297.514C459.105,296.964 458.984,296.55 458.74,296.272C458.497,295.993 458.202,295.853 457.859,295.853C457.521,295.853 457.234,295.99 456.996,296.266C456.76,296.54 456.641,296.948 456.641,297.489M463.388,301.534L463.388,293.617L465.066,293.617L465.066,294.247L464.149,294.247L464.149,300.905L465.066,300.905L465.066,301.534L463.388,301.534ZM468.43,299.814L467.67,299.814L467.67,294.966C467.487,295.14 467.247,295.315 466.95,295.489C466.651,295.664 466.385,295.795 466.148,295.882L466.148,295.148C466.573,294.947 466.946,294.705 467.264,294.421C467.582,294.135 467.808,293.859 467.941,293.591L468.43,293.591L468.43,299.814ZM471.863,301.534L470.185,301.534L470.185,300.905L471.102,300.905L471.102,294.247L470.185,294.247L470.185,293.617L471.863,293.617L471.863,301.534Z" style="fill:rgb(74,77,46);fill-rule:nonzero;"/>
                <path d="M390.919,308.343L390.919,307.578L393.258,307.578L393.258,308.343L390.919,308.343ZM394.081,310.202L394.081,304.005L394.842,304.005L394.842,310.202L394.081,310.202ZM398.951,309.648C398.668,309.888 398.397,310.057 398.137,310.156C397.876,310.254 397.596,310.303 397.297,310.303C396.804,310.303 396.426,310.184 396.16,309.943C395.896,309.702 395.764,309.393 395.764,309.019C395.764,308.798 395.813,308.598 395.914,308.416C396.013,308.234 396.145,308.089 396.306,307.979C396.469,307.869 396.651,307.786 396.855,307.729C397.003,307.69 397.228,307.652 397.53,307.616C398.144,307.542 398.597,307.455 398.887,307.353C398.891,307.249 398.892,307.183 398.892,307.155C398.892,306.845 398.82,306.626 398.675,306.5C398.482,306.327 398.192,306.242 397.81,306.242C397.452,306.242 397.188,306.304 397.016,306.43C396.846,306.555 396.72,306.777 396.638,307.096L395.895,306.994C395.963,306.676 396.074,306.418 396.228,306.223C396.383,306.027 396.608,305.875 396.901,305.77C397.194,305.665 397.533,305.611 397.919,305.611C398.303,305.611 398.613,305.658 398.853,305.747C399.092,305.838 399.268,305.95 399.382,306.087C399.495,306.225 399.573,306.396 399.619,306.606C399.644,306.735 399.656,306.969 399.656,307.307L399.656,308.321C399.656,309.029 399.672,309.477 399.705,309.663C399.737,309.85 399.802,310.031 399.897,310.202L399.103,310.202C399.025,310.045 398.973,309.861 398.951,309.648ZM398.887,307.949C398.61,308.063 398.196,308.158 397.645,308.237C397.332,308.282 397.11,308.332 396.981,308.389C396.852,308.445 396.751,308.527 396.681,308.637C396.611,308.745 396.575,308.865 396.575,308.998C396.575,309.201 396.653,309.37 396.806,309.506C396.958,309.64 397.184,309.707 397.479,309.707C397.772,309.707 398.033,309.644 398.261,309.516C398.489,309.387 398.658,309.211 398.765,308.989C398.847,308.817 398.887,308.563 398.887,308.229L398.887,307.949ZM400.532,308.862L401.284,308.744C401.326,309.045 401.444,309.276 401.638,309.438C401.829,309.598 402.099,309.679 402.447,309.679C402.796,309.679 403.056,309.607 403.225,309.465C403.393,309.322 403.478,309.155 403.478,308.965C403.478,308.791 403.403,308.657 403.253,308.557C403.15,308.49 402.89,308.405 402.476,308.301C401.919,308.159 401.531,308.038 401.316,307.934C401.101,307.832 400.936,307.689 400.825,307.507C400.714,307.326 400.658,307.125 400.658,306.905C400.658,306.705 400.704,306.52 400.796,306.35C400.887,306.178 401.013,306.037 401.17,305.924C401.288,305.838 401.45,305.763 401.653,305.702C401.858,305.642 402.078,305.611 402.311,305.611C402.663,305.611 402.972,305.663 403.239,305.764C403.506,305.865 403.702,306.002 403.829,306.176C403.956,306.35 404.043,306.581 404.09,306.871L403.347,306.973C403.313,306.742 403.215,306.562 403.053,306.432C402.891,306.303 402.662,306.238 402.366,306.238C402.017,306.238 401.767,306.295 401.619,306.411C401.469,306.526 401.393,306.662 401.393,306.816C401.393,306.916 401.425,307.004 401.487,307.083C401.549,307.165 401.646,307.232 401.779,307.286C401.855,307.314 402.079,307.379 402.451,307.48C402.989,307.624 403.364,307.741 403.577,307.833C403.79,307.924 403.957,308.058 404.079,308.233C404.2,308.408 404.26,308.624 404.26,308.884C404.26,309.138 404.186,309.376 404.038,309.601C403.89,309.824 403.676,309.997 403.398,310.12C403.119,310.243 402.803,310.303 402.451,310.303C401.867,310.303 401.422,310.182 401.117,309.94C400.811,309.698 400.616,309.338 400.532,308.862M406.826,309.522L406.935,310.194C406.722,310.238 406.53,310.262 406.361,310.262C406.084,310.262 405.871,310.218 405.718,310.13C405.566,310.044 405.46,309.928 405.397,309.785C405.335,309.644 405.304,309.344 405.304,308.888L405.304,306.305L404.745,306.305L404.745,305.714L405.304,305.714L405.304,304.601L406.061,304.145L406.061,305.714L406.826,305.714L406.826,306.305L406.061,306.305L406.061,308.93C406.061,309.148 406.074,309.286 406.1,309.348C406.128,309.41 406.171,309.459 406.231,309.497C406.292,309.533 406.379,309.552 406.491,309.552C406.576,309.552 406.688,309.542 406.826,309.522M407.658,310.202L407.658,304.005L408.5,304.005L411.755,308.871L411.755,304.005L412.541,304.005L412.541,310.202L411.7,310.202L408.445,305.333L408.445,310.202L407.658,310.202ZM416.751,309.648C416.468,309.888 416.197,310.057 415.937,310.156C415.676,310.254 415.396,310.303 415.098,310.303C414.604,310.303 414.226,310.184 413.961,309.943C413.697,309.702 413.564,309.393 413.564,309.019C413.564,308.798 413.613,308.598 413.714,308.416C413.814,308.234 413.945,308.089 414.106,307.979C414.27,307.869 414.451,307.786 414.655,307.729C414.803,307.69 415.028,307.652 415.33,307.616C415.945,307.542 416.398,307.455 416.688,307.353C416.691,307.249 416.692,307.183 416.692,307.155C416.692,306.845 416.62,306.626 416.475,306.5C416.282,306.327 415.992,306.242 415.61,306.242C415.252,306.242 414.988,306.304 414.816,306.43C414.646,306.555 414.52,306.777 414.438,307.096L413.695,306.994C413.763,306.676 413.874,306.418 414.029,306.223C414.183,306.027 414.408,305.875 414.701,305.77C414.994,305.665 415.333,305.611 415.72,305.611C416.103,305.611 416.413,305.658 416.653,305.747C416.893,305.838 417.069,305.95 417.183,306.087C417.295,306.225 417.373,306.396 417.419,306.606C417.444,306.735 417.457,306.969 417.457,307.307L417.457,308.321C417.457,309.029 417.472,309.477 417.506,309.663C417.537,309.85 417.602,310.031 417.698,310.202L416.903,310.202C416.825,310.045 416.773,309.861 416.751,309.648ZM416.688,307.949C416.411,308.063 415.996,308.158 415.445,308.237C415.132,308.282 414.91,308.332 414.781,308.389C414.652,308.445 414.551,308.527 414.482,308.637C414.411,308.745 414.375,308.865 414.375,308.998C414.375,309.201 414.453,309.37 414.606,309.506C414.759,309.64 414.984,309.707 415.28,309.707C415.572,309.707 415.833,309.644 416.061,309.516C416.29,309.387 416.458,309.211 416.565,308.989C416.647,308.817 416.688,308.563 416.688,308.229L416.688,307.949ZM418.637,310.202L418.637,305.714L419.316,305.714L419.316,306.343C419.458,306.124 419.646,305.946 419.879,305.813C420.113,305.679 420.38,305.611 420.678,305.611C421.01,305.611 421.283,305.681 421.495,305.819C421.708,305.958 421.859,306.149 421.945,306.398C422.302,305.874 422.763,305.611 423.332,305.611C423.778,305.611 424.12,305.735 424.359,305.982C424.599,306.229 424.718,306.608 424.718,307.121L424.718,310.202L423.962,310.202L423.962,307.375C423.962,307.07 423.938,306.851 423.889,306.717C423.838,306.584 423.749,306.476 423.62,306.393C423.49,306.312 423.338,306.271 423.163,306.271C422.847,306.271 422.586,306.376 422.377,306.587C422.169,306.796 422.063,307.132 422.063,307.594L422.063,310.202L421.303,310.202L421.303,307.286C421.303,306.947 421.241,306.693 421.117,306.525C420.993,306.356 420.791,306.271 420.508,306.271C420.295,306.271 420.097,306.327 419.915,306.441C419.733,306.553 419.601,306.718 419.52,306.934C419.438,307.152 419.397,307.465 419.397,307.874L419.397,310.202L418.637,310.202ZM428.92,308.757L429.706,308.853C429.582,309.314 429.353,309.67 429.018,309.924C428.682,310.176 428.253,310.303 427.732,310.303C427.076,310.303 426.555,310.102 426.171,309.698C425.786,309.293 425.594,308.726 425.594,307.996C425.594,307.24 425.789,306.655 426.177,306.238C426.567,305.821 427.07,305.611 427.691,305.611C428.291,305.611 428.781,305.816 429.161,306.225C429.542,306.633 429.732,307.208 429.732,307.949C429.732,307.995 429.731,308.063 429.728,308.152L426.381,308.152C426.408,308.646 426.548,309.023 426.799,309.285C427.05,309.547 427.362,309.679 427.737,309.679C428.015,309.679 428.253,309.605 428.451,309.458C428.649,309.312 428.805,309.078 428.92,308.757ZM426.422,307.526L428.929,307.526C428.895,307.15 428.799,306.865 428.642,306.678C428.399,306.385 428.085,306.238 427.699,306.238C427.35,306.238 427.056,306.354 426.818,306.588C426.58,306.822 426.448,307.135 426.422,307.526M433.279,306.579L433.279,305.714L434.146,305.714L434.146,306.579L433.279,306.579ZM433.279,310.202L433.279,309.335L434.146,309.335L434.146,310.202L433.279,310.202ZM437.696,308.211L438.47,308.144C438.506,308.454 438.591,308.708 438.725,308.907C438.86,309.106 439.067,309.266 439.349,309.389C439.63,309.511 439.948,309.572 440.3,309.572C440.613,309.572 440.888,309.526 441.128,309.433C441.367,309.34 441.546,309.213 441.663,309.051C441.78,308.888 441.839,308.712 441.839,308.52C441.839,308.325 441.783,308.156 441.669,308.011C441.556,307.865 441.37,307.744 441.112,307.646C440.944,307.581 440.578,307.48 440.008,307.343C439.439,307.206 439.04,307.077 438.812,306.956C438.516,306.802 438.295,306.608 438.15,306.379C438.006,306.149 437.933,305.893 437.933,305.607C437.933,305.295 438.021,305.003 438.199,304.731C438.376,304.459 438.636,304.252 438.976,304.111C439.318,303.971 439.696,303.9 440.113,303.9C440.574,303.9 440.978,303.974 441.33,304.122C441.68,304.27 441.95,304.487 442.139,304.774C442.327,305.062 442.429,305.388 442.443,305.751L441.657,305.81C441.614,305.42 441.471,305.122 441.227,304.923C440.983,304.722 440.624,304.623 440.148,304.623C439.652,304.623 439.291,304.714 439.063,304.896C438.836,305.077 438.722,305.297 438.722,305.552C438.722,305.776 438.803,305.959 438.963,306.102C439.122,306.246 439.533,306.393 440.2,306.543C440.867,306.695 441.324,306.826 441.572,306.939C441.933,307.106 442.2,307.317 442.371,307.571C442.543,307.826 442.628,308.12 442.628,308.452C442.628,308.783 442.534,309.093 442.345,309.384C442.156,309.676 441.885,309.902 441.532,310.065C441.178,310.227 440.78,310.308 440.338,310.308C439.777,310.308 439.307,310.227 438.929,310.062C438.549,309.899 438.252,309.654 438.035,309.325C437.821,308.998 437.707,308.626 437.696,308.211M445.313,309.522L445.423,310.194C445.209,310.238 445.018,310.262 444.849,310.262C444.572,310.262 444.358,310.218 444.205,310.13C444.054,310.044 443.947,309.928 443.885,309.785C443.823,309.644 443.791,309.344 443.791,308.888L443.791,306.305L443.233,306.305L443.233,305.714L443.791,305.714L443.791,304.601L444.549,304.145L444.549,305.714L445.313,305.714L445.313,306.305L444.549,306.305L444.549,308.93C444.549,309.148 444.561,309.286 444.588,309.348C444.615,309.41 444.658,309.459 444.719,309.497C444.779,309.533 444.866,309.552 444.978,309.552C445.064,309.552 445.175,309.542 445.313,309.522M446.049,310.202L446.049,305.714L446.733,305.714L446.733,306.393C446.908,306.076 447.069,305.865 447.218,305.764C447.365,305.663 447.528,305.611 447.705,305.611C447.962,305.611 448.222,305.694 448.487,305.857L448.225,306.564C448.04,306.452 447.854,306.398 447.668,306.398C447.501,306.398 447.352,306.448 447.219,306.548C447.087,306.649 446.993,306.787 446.936,306.965C446.851,307.235 446.81,307.53 446.81,307.852L446.81,310.202L446.049,310.202ZM448.944,304.881L448.944,304.005L449.705,304.005L449.705,304.881L448.944,304.881ZM448.944,310.202L448.944,305.714L449.705,305.714L449.705,310.202L448.944,310.202ZM450.864,310.202L450.864,305.714L451.548,305.714L451.548,306.352C451.878,305.858 452.355,305.611 452.976,305.611C453.247,305.611 453.496,305.66 453.722,305.757C453.95,305.855 454.119,305.982 454.232,306.141C454.346,306.298 454.423,306.486 454.47,306.702C454.497,306.843 454.511,307.09 454.511,307.442L454.511,310.202L453.75,310.202L453.75,307.471C453.75,307.162 453.721,306.93 453.662,306.776C453.602,306.623 453.497,306.5 453.347,306.409C453.196,306.317 453.02,306.271 452.816,306.271C452.491,306.271 452.213,306.375 451.976,306.579C451.741,306.786 451.624,307.175 451.624,307.751L451.624,310.202L450.864,310.202ZM455.539,310.575L456.279,310.684C456.309,310.912 456.395,311.078 456.536,311.183C456.725,311.324 456.983,311.394 457.309,311.394C457.662,311.394 457.934,311.324 458.126,311.183C458.317,311.042 458.446,310.844 458.514,310.592C458.554,310.436 458.571,310.111 458.569,309.615C458.237,310.006 457.823,310.202 457.326,310.202C456.709,310.202 456.231,309.98 455.893,309.534C455.556,309.09 455.386,308.555 455.386,307.933C455.386,307.504 455.463,307.109 455.618,306.747C455.774,306.385 455.999,306.105 456.293,305.907C456.587,305.711 456.934,305.611 457.331,305.611C457.86,305.611 458.297,305.826 458.641,306.255L458.641,305.714L459.343,305.714L459.343,309.594C459.343,310.292 459.271,310.788 459.13,311.08C458.987,311.371 458.762,311.602 458.453,311.771C458.144,311.939 457.765,312.025 457.313,312.025C456.778,312.025 456.345,311.903 456.016,311.663C455.686,311.422 455.527,311.059 455.539,310.575ZM456.168,307.878C456.168,308.467 456.284,308.897 456.52,309.166C456.754,309.438 457.046,309.572 457.398,309.572C457.748,309.572 458.041,309.438 458.277,309.169C458.514,308.9 458.632,308.478 458.632,307.903C458.632,307.353 458.511,306.939 458.267,306.66C458.023,306.382 457.729,306.242 457.385,306.242C457.048,306.242 456.761,306.379 456.523,306.655C456.286,306.929 456.168,307.337 456.168,307.878M462.914,311.922L462.914,304.005L464.592,304.005L464.592,304.636L463.676,304.636L463.676,311.293L464.592,311.293L464.592,311.922L462.914,311.922ZM467.957,310.202L467.197,310.202L467.197,305.355C467.013,305.529 466.774,305.704 466.477,305.878C466.178,306.053 465.911,306.184 465.675,306.271L465.675,305.536C466.1,305.336 466.472,305.093 466.791,304.809C467.109,304.523 467.335,304.248 467.468,303.98L467.957,303.98L467.957,310.202ZM471.389,311.922L469.711,311.922L469.711,311.293L470.629,311.293L470.629,304.636L469.711,304.636L469.711,304.005L471.389,304.005L471.389,311.922Z" style="fill:rgb(74,77,46);fill-rule:nonzero;"/>
                <path d="M390.919,318.731L390.919,317.967L393.258,317.967L393.258,318.731L390.919,318.731ZM394.8,320.591L394.094,320.591L394.094,314.394L394.855,314.394L394.855,316.604C395.177,316.202 395.586,316 396.084,316C396.361,316 396.622,316.056 396.869,316.167C397.116,316.278 397.318,316.436 397.478,316.636C397.636,316.838 397.762,317.081 397.852,317.366C397.942,317.651 397.987,317.955 397.987,318.278C397.987,319.049 397.797,319.643 397.416,320.063C397.036,320.483 396.579,320.692 396.047,320.692C395.517,320.692 395.101,320.471 394.8,320.028L394.8,320.591ZM394.791,318.313C394.791,318.851 394.865,319.239 395.011,319.479C395.25,319.871 395.575,320.067 395.983,320.067C396.316,320.067 396.604,319.923 396.846,319.633C397.088,319.344 397.21,318.914 397.21,318.342C397.21,317.756 397.093,317.323 396.86,317.045C396.628,316.766 396.347,316.626 396.018,316.626C395.685,316.626 395.397,316.771 395.155,317.059C394.912,317.348 394.791,317.766 394.791,318.313M398.916,315.27L398.916,314.394L399.678,314.394L399.678,315.27L398.916,315.27ZM398.916,320.591L398.916,316.102L399.678,316.102L399.678,320.591L398.916,320.591ZM400.828,320.591L400.828,316.102L401.512,316.102L401.512,316.782C401.687,316.465 401.848,316.254 401.997,316.153C402.144,316.052 402.307,316 402.484,316C402.741,316 403.001,316.082 403.266,316.245L403.004,316.952C402.819,316.841 402.633,316.786 402.447,316.786C402.28,316.786 402.131,316.837 401.998,316.936C401.865,317.037 401.772,317.176 401.715,317.353C401.63,317.623 401.588,317.919 401.588,318.241L401.588,320.591L400.828,320.591ZM405.38,319.91L405.49,320.582C405.276,320.627 405.085,320.65 404.915,320.65C404.639,320.65 404.425,320.607 404.272,320.519C404.121,320.432 404.014,320.317 403.952,320.174C403.89,320.033 403.858,319.733 403.858,319.277L403.858,316.694L403.299,316.694L403.299,316.102L403.858,316.102L403.858,314.99L404.616,314.534L404.616,316.102L405.38,316.102L405.38,316.694L404.616,316.694L404.616,319.319C404.616,319.536 404.628,319.675 404.655,319.737C404.682,319.799 404.725,319.848 404.786,319.886C404.846,319.922 404.933,319.94 405.045,319.94C405.131,319.94 405.242,319.93 405.38,319.91M406.125,320.591L406.125,314.394L406.885,314.394L406.885,316.618C407.24,316.206 407.689,316 408.23,316C408.562,316 408.85,316.066 409.095,316.198C409.341,316.328 409.517,316.509 409.622,316.74C409.727,316.971 409.781,317.307 409.781,317.746L409.781,320.591L409.019,320.591L409.019,317.746C409.019,317.366 408.937,317.089 408.772,316.916C408.608,316.743 408.374,316.655 408.073,316.655C407.847,316.655 407.635,316.714 407.436,316.831C407.237,316.948 407.096,317.107 407.012,317.307C406.927,317.506 406.885,317.783 406.885,318.135L406.885,320.591L406.125,320.591ZM411.036,320.591L411.036,314.394L413.17,314.394C413.652,314.394 414.02,314.424 414.274,314.484C414.629,314.564 414.932,314.713 415.183,314.927C415.509,315.204 415.754,315.556 415.916,315.986C416.079,316.416 416.159,316.906 416.159,317.459C416.159,317.929 416.105,318.346 415.994,318.71C415.884,319.073 415.744,319.375 415.571,319.613C415.399,319.851 415.211,320.039 415.007,320.174C414.803,320.311 414.556,320.415 414.268,320.486C413.978,320.557 413.646,320.591 413.272,320.591L411.036,320.591ZM411.856,319.859L413.179,319.859C413.587,319.859 413.909,319.822 414.141,319.746C414.373,319.669 414.558,319.562 414.696,319.424C414.891,319.23 415.043,318.968 415.151,318.64C415.259,318.311 415.314,317.915 415.314,317.446C415.314,316.798 415.207,316.3 414.995,315.953C414.781,315.603 414.523,315.371 414.219,315.253C414,315.168 413.645,315.126 413.158,315.126L411.856,315.126L411.856,319.859ZM420.12,320.037C419.837,320.276 419.566,320.445 419.307,320.545C419.045,320.643 418.765,320.692 418.467,320.692C417.973,320.692 417.595,320.572 417.33,320.331C417.066,320.091 416.933,319.782 416.933,319.408C416.933,319.187 416.982,318.987 417.083,318.805C417.183,318.623 417.314,318.477 417.475,318.368C417.639,318.258 417.82,318.174 418.024,318.118C418.172,318.079 418.397,318.04 418.699,318.004C419.314,317.931 419.766,317.844 420.057,317.741C420.06,317.638 420.061,317.571 420.061,317.544C420.061,317.234 419.989,317.014 419.845,316.889C419.651,316.716 419.361,316.631 418.979,316.631C418.621,316.631 418.357,316.693 418.185,316.818C418.015,316.943 417.889,317.166 417.807,317.485L417.064,317.382C417.132,317.065 417.243,316.807 417.398,316.612C417.552,316.416 417.777,316.264 418.07,316.159C418.363,316.053 418.702,316 419.088,316C419.472,316 419.782,316.046 420.022,316.136C420.261,316.227 420.437,316.339 420.551,316.476C420.664,316.613 420.742,316.785 420.788,316.994C420.813,317.124 420.826,317.358 420.826,317.695L420.826,318.71C420.826,319.418 420.841,319.865 420.875,320.051C420.906,320.239 420.971,320.419 421.066,320.591L420.272,320.591C420.194,320.434 420.142,320.249 420.12,320.037ZM420.057,318.337C419.78,318.452 419.365,318.546 418.814,318.626C418.501,318.671 418.279,318.721 418.151,318.778C418.021,318.834 417.92,318.916 417.851,319.026C417.78,319.134 417.744,319.254 417.744,319.386C417.744,319.59 417.822,319.759 417.975,319.894C418.128,320.028 418.353,320.096 418.649,320.096C418.941,320.096 419.202,320.033 419.43,319.904C419.659,319.776 419.827,319.6 419.934,319.378C420.016,319.206 420.057,318.952 420.057,318.617L420.057,318.337ZM423.666,319.91L423.776,320.582C423.563,320.627 423.371,320.65 423.202,320.65C422.925,320.65 422.711,320.607 422.558,320.519C422.407,320.432 422.3,320.317 422.238,320.174C422.176,320.033 422.144,319.733 422.144,319.277L422.144,316.694L421.586,316.694L421.586,316.102L422.144,316.102L422.144,314.99L422.902,314.534L422.902,316.102L423.666,316.102L423.666,316.694L422.902,316.694L422.902,319.319C422.902,319.536 422.915,319.675 422.941,319.737C422.968,319.799 423.011,319.848 423.072,319.886C423.133,319.922 423.219,319.94 423.332,319.94C423.417,319.94 423.528,319.93 423.666,319.91M427.483,319.145L428.269,319.242C428.145,319.702 427.916,320.059 427.581,320.313C427.245,320.565 426.816,320.692 426.295,320.692C425.639,320.692 425.118,320.49 424.734,320.086C424.349,319.682 424.157,319.115 424.157,318.385C424.157,317.629 424.352,317.043 424.74,316.626C425.129,316.209 425.633,316 426.254,316C426.854,316 427.344,316.205 427.724,316.613C428.105,317.021 428.295,317.597 428.295,318.337C428.295,318.383 428.294,318.452 428.291,318.541L424.943,318.541C424.971,319.034 425.111,319.412 425.362,319.674C425.613,319.936 425.924,320.067 426.299,320.067C426.578,320.067 426.816,319.994 427.014,319.847C427.211,319.701 427.367,319.467 427.483,319.145ZM424.985,317.915L427.491,317.915C427.458,317.538 427.362,317.254 427.204,317.066C426.962,316.773 426.647,316.626 426.262,316.626C425.913,316.626 425.619,316.743 425.381,316.977C425.142,317.211 425.011,317.524 424.985,317.915M431.842,316.968L431.842,316.102L432.709,316.102L432.709,316.968L431.842,316.968ZM431.842,320.591L431.842,319.724L432.709,319.724L432.709,320.591L431.842,320.591ZM436.503,320.591L436.503,314.394L437.324,314.394L437.324,319.859L440.376,319.859L440.376,320.591L436.503,320.591ZM440.972,318.346C440.972,317.515 441.202,316.899 441.666,316.499C442.051,316.167 442.521,316 443.077,316C443.694,316 444.199,316.202 444.59,316.608C444.983,317.012 445.177,317.57 445.177,318.283C445.177,318.861 445.091,319.316 444.918,319.646C444.745,319.978 444.492,320.235 444.162,320.418C443.83,320.601 443.469,320.692 443.077,320.692C442.449,320.692 441.941,320.492 441.553,320.088C441.165,319.685 440.972,319.105 440.972,318.346ZM441.754,318.346C441.754,318.922 441.879,319.352 442.13,319.638C442.381,319.924 442.697,320.067 443.077,320.067C443.455,320.067 443.769,319.923 444.02,319.636C444.27,319.349 444.395,318.91 444.395,318.321C444.395,317.766 444.27,317.345 444.018,317.059C443.765,316.773 443.452,316.631 443.077,316.631C442.697,316.631 442.381,316.773 442.13,317.058C441.879,317.342 441.754,317.772 441.754,318.346M448.999,318.946L449.747,319.045C449.666,319.56 449.457,319.964 449.119,320.255C448.783,320.546 448.369,320.692 447.878,320.692C447.265,320.692 446.77,320.492 446.398,320.091C446.024,319.689 445.837,319.114 445.837,318.363C445.837,317.879 445.917,317.454 446.078,317.091C446.239,316.727 446.483,316.455 446.812,316.273C447.14,316.091 447.498,316 447.883,316C448.37,316 448.77,316.124 449.079,316.371C449.389,316.618 449.588,316.967 449.676,317.421L448.936,317.535C448.865,317.234 448.741,317.007 448.562,316.854C448.383,316.703 448.167,316.626 447.913,316.626C447.529,316.626 447.218,316.763 446.978,317.039C446.738,317.313 446.619,317.747 446.619,318.342C446.619,318.945 446.734,319.384 446.967,319.658C447.197,319.93 447.499,320.067 447.871,320.067C448.17,320.067 448.418,319.975 448.619,319.792C448.819,319.609 448.946,319.327 448.999,318.946M453.328,320.037C453.045,320.276 452.774,320.445 452.514,320.545C452.253,320.643 451.973,320.692 451.674,320.692C451.181,320.692 450.803,320.572 450.537,320.331C450.273,320.091 450.141,319.782 450.141,319.408C450.141,319.187 450.19,318.987 450.291,318.805C450.39,318.623 450.522,318.477 450.683,318.368C450.846,318.258 451.028,318.174 451.232,318.118C451.38,318.079 451.605,318.04 451.907,318.004C452.521,317.931 452.974,317.844 453.264,317.741C453.268,317.638 453.269,317.571 453.269,317.544C453.269,317.234 453.197,317.014 453.052,316.889C452.859,316.716 452.569,316.631 452.187,316.631C451.829,316.631 451.565,316.693 451.393,316.818C451.223,316.943 451.097,317.166 451.015,317.485L450.272,317.382C450.34,317.065 450.451,316.807 450.606,316.612C450.76,316.416 450.985,316.264 451.278,316.159C451.571,316.053 451.91,316 452.296,316C452.68,316 452.99,316.046 453.23,316.136C453.469,316.227 453.645,316.339 453.759,316.476C453.872,316.613 453.95,316.785 453.996,316.994C454.021,317.124 454.033,317.358 454.033,317.695L454.033,318.71C454.033,319.418 454.049,319.865 454.083,320.051C454.114,320.239 454.179,320.419 454.274,320.591L453.48,320.591C453.402,320.434 453.35,320.249 453.328,320.037ZM453.264,318.337C452.987,318.452 452.573,318.546 452.022,318.626C451.709,318.671 451.487,318.721 451.358,318.778C451.228,318.834 451.128,318.916 451.059,319.026C450.988,319.134 450.952,319.254 450.952,319.386C450.952,319.59 451.03,319.759 451.183,319.894C451.335,320.028 451.561,320.096 451.856,320.096C452.149,320.096 452.41,320.033 452.638,319.904C452.866,319.776 453.035,319.6 453.142,319.378C453.224,319.206 453.264,318.952 453.264,318.617L453.264,318.337ZM455.196,320.591L455.196,314.394L455.957,314.394L455.957,320.591L455.196,320.591ZM457.234,320.591L457.234,314.394L459.368,314.394C459.85,314.394 460.218,314.424 460.471,314.484C460.826,314.564 461.129,314.713 461.38,314.927C461.706,315.204 461.952,315.556 462.113,315.986C462.276,316.416 462.357,316.906 462.357,317.459C462.357,317.929 462.302,318.346 462.191,318.71C462.081,319.073 461.941,319.375 461.769,319.613C461.597,319.851 461.409,320.039 461.204,320.174C461.001,320.311 460.754,320.415 460.465,320.486C460.176,320.557 459.844,320.591 459.47,320.591L457.234,320.591ZM458.053,319.859L459.376,319.859C459.785,319.859 460.106,319.822 460.338,319.746C460.571,319.669 460.756,319.562 460.894,319.424C461.089,319.23 461.241,318.968 461.349,318.64C461.457,318.311 461.512,317.915 461.512,317.446C461.512,316.798 461.405,316.3 461.193,315.953C460.979,315.603 460.721,315.371 460.416,315.253C460.197,315.168 459.842,315.126 459.356,315.126L458.053,315.126L458.053,319.859ZM466.318,320.037C466.035,320.276 465.764,320.445 465.504,320.545C465.243,320.643 464.963,320.692 464.664,320.692C464.171,320.692 463.793,320.572 463.527,320.331C463.263,320.091 463.131,319.782 463.131,319.408C463.131,319.187 463.18,318.987 463.281,318.805C463.38,318.623 463.511,318.477 463.673,318.368C463.836,318.258 464.018,318.174 464.221,318.118C464.37,318.079 464.595,318.04 464.897,318.004C465.511,317.931 465.964,317.844 466.254,317.741C466.257,317.638 466.259,317.571 466.259,317.544C466.259,317.234 466.186,317.014 466.042,316.889C465.849,316.716 465.559,316.631 465.176,316.631C464.819,316.631 464.555,316.693 464.383,316.818C464.213,316.943 464.087,317.166 464.005,317.485L463.262,317.382C463.33,317.065 463.441,316.807 463.595,316.612C463.749,316.416 463.975,316.264 464.267,316.159C464.56,316.053 464.9,316 465.286,316C465.67,316 465.98,316.046 466.22,316.136C466.459,316.227 466.635,316.339 466.749,316.476C466.862,316.613 466.94,316.785 466.986,316.994C467.01,317.124 467.023,317.358 467.023,317.695L467.023,318.71C467.023,319.418 467.039,319.865 467.072,320.051C467.104,320.239 467.169,320.419 467.264,320.591L466.469,320.591C466.391,320.434 466.34,320.249 466.318,320.037ZM466.254,318.337C465.977,318.452 465.563,318.546 465.012,318.626C464.699,318.671 464.476,318.721 464.348,318.778C464.218,318.834 464.117,318.916 464.048,319.026C463.977,319.134 463.941,319.254 463.941,319.386C463.941,319.59 464.019,319.759 464.172,319.894C464.325,320.028 464.55,320.096 464.846,320.096C465.139,320.096 465.4,320.033 465.628,319.904C465.856,319.776 466.025,319.6 466.132,319.378C466.214,319.206 466.254,318.952 466.254,318.617L466.254,318.337ZM469.864,319.91L469.974,320.582C469.76,320.627 469.568,320.65 469.4,320.65C469.123,320.65 468.909,320.607 468.756,320.519C468.605,320.432 468.498,320.317 468.436,320.174C468.374,320.033 468.342,319.733 468.342,319.277L468.342,316.694L467.783,316.694L467.783,316.102L468.342,316.102L468.342,314.99L469.1,314.534L469.1,316.102L469.864,316.102L469.864,316.694L469.1,316.694L469.1,319.319C469.1,319.536 469.112,319.675 469.138,319.737C469.166,319.799 469.209,319.848 469.27,319.886C469.33,319.922 469.417,319.94 469.529,319.94C469.615,319.94 469.726,319.93 469.864,319.91M473.68,319.145L474.467,319.242C474.343,319.702 474.113,320.059 473.778,320.313C473.442,320.565 473.014,320.692 472.493,320.692C471.836,320.692 471.316,320.49 470.932,320.086C470.547,319.682 470.355,319.115 470.355,318.385C470.355,317.629 470.55,317.043 470.937,316.626C471.327,316.209 471.831,316 472.451,316C473.051,316 473.542,316.205 473.921,316.613C474.302,317.021 474.493,317.597 474.493,318.337C474.493,318.383 474.491,318.452 474.488,318.541L471.141,318.541C471.169,319.034 471.308,319.412 471.56,319.674C471.811,319.936 472.122,320.067 472.497,320.067C472.776,320.067 473.014,319.994 473.211,319.847C473.409,319.701 473.565,319.467 473.68,319.145ZM471.183,317.915L473.689,317.915C473.656,317.538 473.559,317.254 473.402,317.066C473.16,316.773 472.845,316.626 472.46,316.626C472.111,316.626 471.816,316.743 471.578,316.977C471.34,317.211 471.209,317.524 471.183,317.915M477.844,322.311L477.844,314.394L479.522,314.394L479.522,315.025L478.606,315.025L478.606,321.682L479.522,321.682L479.522,322.311L477.844,322.311ZM482.887,320.591L482.127,320.591L482.127,315.743C481.943,315.918 481.704,316.092 481.407,316.267C481.108,316.441 480.841,316.573 480.605,316.659L480.605,315.925C481.03,315.724 481.403,315.482 481.721,315.198C482.039,314.912 482.265,314.637 482.398,314.368L482.887,314.368L482.887,320.591ZM486.32,322.311L484.641,322.311L484.641,321.682L485.559,321.682L485.559,315.025L484.641,315.025L484.641,314.394L486.32,314.394L486.32,322.311Z" style="fill:rgb(74,77,46);fill-rule:nonzero;"/>
                <path d="M431.956,278.033L433.206,278.033L433.206,281.39C433.206,281.922 433.222,282.268 433.253,282.425C433.306,282.679 433.434,282.883 433.635,283.036C433.837,283.19 434.112,283.267 434.462,283.267C434.816,283.267 435.085,283.194 435.265,283.049C435.446,282.905 435.554,282.726 435.59,282.515C435.628,282.303 435.645,281.952 435.645,281.462L435.645,278.033L436.896,278.033L436.896,281.288C436.896,282.033 436.863,282.558 436.795,282.866C436.727,283.173 436.603,283.431 436.421,283.643C436.239,283.854 435.995,284.023 435.692,284.148C435.388,284.274 434.99,284.336 434.499,284.336C433.908,284.336 433.459,284.268 433.153,284.131C432.847,283.994 432.606,283.816 432.429,283.599C432.251,283.381 432.134,283.151 432.078,282.912C431.996,282.557 431.956,282.033 431.956,281.339L431.956,278.033ZM437.789,282.949L438.981,282.768C439.031,282.998 439.134,283.174 439.289,283.294C439.444,283.414 439.66,283.475 439.94,283.475C440.247,283.475 440.478,283.418 440.633,283.304C440.738,283.226 440.79,283.12 440.79,282.988C440.79,282.897 440.761,282.822 440.705,282.763C440.646,282.707 440.513,282.655 440.308,282.607C439.35,282.397 438.743,282.203 438.486,282.029C438.131,281.787 437.953,281.449 437.953,281.017C437.953,280.629 438.106,280.302 438.414,280.038C438.721,279.772 439.197,279.64 439.842,279.64C440.457,279.64 440.914,279.74 441.213,279.939C441.511,280.14 441.716,280.436 441.829,280.828L440.709,281.035C440.662,280.86 440.571,280.726 440.436,280.634C440.302,280.54 440.112,280.494 439.864,280.494C439.551,280.494 439.327,280.537 439.191,280.625C439.102,280.687 439.057,280.768 439.057,280.866C439.057,280.951 439.096,281.022 439.175,281.081C439.282,281.16 439.652,281.271 440.285,281.415C440.917,281.558 441.358,281.734 441.609,281.944C441.858,282.156 441.982,282.45 441.982,282.827C441.982,283.238 441.81,283.593 441.465,283.889C441.122,284.184 440.614,284.331 439.94,284.331C439.328,284.331 438.845,284.208 438.487,283.959C438.131,283.713 437.899,283.375 437.789,282.949M445.621,282.802L446.805,283C446.652,283.434 446.412,283.765 446.084,283.991C445.756,284.219 445.345,284.331 444.851,284.331C444.071,284.331 443.494,284.077 443.119,283.567C442.823,283.158 442.674,282.642 442.674,282.02C442.674,281.276 442.869,280.693 443.259,280.271C443.647,279.85 444.138,279.64 444.733,279.64C445.401,279.64 445.928,279.86 446.314,280.302C446.7,280.743 446.884,281.419 446.869,282.329L443.892,282.329C443.901,282.681 443.996,282.955 444.179,283.15C444.362,283.346 444.592,283.444 444.865,283.444C445.05,283.444 445.206,283.394 445.333,283.293C445.46,283.19 445.557,283.027 445.621,282.802ZM445.688,281.602C445.68,281.257 445.592,280.996 445.423,280.817C445.254,280.638 445.048,280.548 444.805,280.548C444.546,280.548 444.332,280.644 444.163,280.833C443.994,281.02 443.911,281.277 443.913,281.602L445.688,281.602ZM448.974,284.231L447.786,284.231L447.786,279.742L448.888,279.742L448.888,280.38C449.077,280.078 449.248,279.879 449.398,279.784C449.549,279.689 449.719,279.64 449.911,279.64C450.183,279.64 450.442,279.714 450.693,279.865L450.325,280.899C450.126,280.771 449.94,280.706 449.768,280.706C449.601,280.706 449.461,280.75 449.346,280.843C449.229,280.934 449.139,281.1 449.073,281.339C449.007,281.579 448.974,282.081 448.974,282.844L448.974,284.231Z" style="fill:rgb(46,77,46);fill-rule:nonzero;"/>
                <rect x="479.813" y="159.567" width="42.421" height="42.421" style="fill:rgb(171,201,171);stroke-width:0.87px;stroke:rgb(171,201,171);"/>
                <rect x="477.216" y="156.969" width="42.42" height="42.421" style="fill:rgb(224,255,224);stroke-width:0.87px;stroke:rgb(224,255,224);"/>
                <path d="M477.217,172.551L518.773,172.551M477.217,156.968L518.773,156.968L518.773,198.523L477.217,198.523L477.217,156.968ZM477.217,190.732L518.773,190.732" style="fill:none;stroke-width:0.87px;stroke:rgb(46,77,46);"/>
                <path d="M479.223,181.08L479.223,180.316L481.561,180.316L481.561,181.08L479.223,181.08ZM482.406,177.619L482.406,176.743L483.167,176.743L483.167,177.619L482.406,177.619ZM482.406,182.94L482.406,178.451L483.167,178.451L483.167,182.94L482.406,182.94ZM487.238,182.94L487.238,182.373C486.954,182.819 486.535,183.041 485.982,183.041C485.625,183.041 485.296,182.943 484.995,182.745C484.696,182.549 484.463,182.273 484.297,181.919C484.133,181.565 484.05,181.16 484.05,180.699C484.05,180.252 484.125,179.845 484.274,179.48C484.424,179.115 484.648,178.835 484.946,178.642C485.245,178.447 485.58,178.349 485.949,178.349C486.219,178.349 486.46,178.407 486.671,178.521C486.883,178.635 487.055,178.783 487.187,178.967L487.187,176.743L487.943,176.743L487.943,182.94L487.238,182.94ZM484.832,180.699C484.832,181.275 484.954,181.705 485.196,181.989C485.438,182.273 485.724,182.416 486.054,182.416C486.386,182.416 486.669,182.279 486.901,182.008C487.134,181.737 487.251,181.321 487.251,180.763C487.251,180.148 487.132,179.698 486.896,179.411C486.659,179.122 486.368,178.98 486.02,178.98C485.682,178.98 485.4,179.118 485.173,179.394C484.946,179.669 484.832,180.105 484.832,180.699M491.757,179.317L491.757,178.451L492.624,178.451L492.624,179.317L491.757,179.317ZM491.757,182.94L491.757,182.073L492.624,182.073L492.624,182.94L491.757,182.94ZM496.339,182.94L496.339,176.743L497.099,176.743L497.099,182.94L496.339,182.94ZM497.995,180.695C497.995,179.864 498.226,179.248 498.689,178.848C499.075,178.516 499.545,178.349 500.1,178.349C500.718,178.349 501.223,178.551 501.614,178.957C502.006,179.361 502.201,179.919 502.201,180.632C502.201,181.21 502.115,181.665 501.941,181.995C501.768,182.327 501.516,182.584 501.186,182.767C500.854,182.95 500.493,183.041 500.1,183.041C499.473,183.041 498.965,182.841 498.577,182.437C498.189,182.034 497.995,181.454 497.995,180.695ZM498.777,180.695C498.777,181.271 498.903,181.701 499.154,181.987C499.405,182.273 499.721,182.416 500.1,182.416C500.478,182.416 500.793,182.272 501.044,181.985C501.294,181.698 501.419,181.259 501.419,180.67C501.419,180.115 501.294,179.694 501.041,179.408C500.789,179.122 500.476,178.98 500.1,178.98C499.721,178.98 499.405,179.122 499.154,179.407C498.903,179.691 498.777,180.121 498.777,180.695M503.094,182.94L503.094,178.451L503.778,178.451L503.778,179.089C504.109,178.596 504.585,178.349 505.206,178.349C505.478,178.349 505.726,178.398 505.953,178.495C506.18,178.593 506.349,178.72 506.462,178.879C506.576,179.036 506.654,179.223 506.7,179.44C506.727,179.581 506.742,179.828 506.742,180.18L506.742,182.94L505.98,182.94L505.98,180.209C505.98,179.9 505.951,179.668 505.892,179.513C505.833,179.361 505.727,179.238 505.578,179.147C505.426,179.055 505.25,179.009 505.046,179.009C504.722,179.009 504.443,179.112 504.207,179.317C503.971,179.524 503.855,179.913 503.855,180.489L503.855,182.94L503.094,182.94ZM507.769,183.312L508.509,183.422C508.539,183.65 508.626,183.816 508.766,183.921C508.955,184.061 509.213,184.132 509.539,184.132C509.893,184.132 510.164,184.061 510.356,183.921C510.548,183.78 510.676,183.582 510.744,183.33C510.784,183.174 510.802,182.849 510.799,182.353C510.467,182.744 510.053,182.94 509.557,182.94C508.939,182.94 508.461,182.718 508.124,182.272C507.786,181.828 507.616,181.292 507.616,180.67C507.616,180.242 507.694,179.847 507.848,179.484C508.004,179.122 508.229,178.842 508.523,178.645C508.818,178.449 509.164,178.349 509.561,178.349C510.09,178.349 510.528,178.564 510.871,178.993L510.871,178.451L511.574,178.451L511.574,182.331C511.574,183.03 511.502,183.526 511.36,183.817C511.217,184.109 510.992,184.34 510.684,184.509C510.375,184.677 509.995,184.763 509.544,184.763C509.008,184.763 508.575,184.641 508.247,184.4C507.916,184.159 507.757,183.797 507.769,183.312ZM508.398,180.616C508.398,181.205 508.515,181.635 508.75,181.904C508.984,182.175 509.277,182.31 509.629,182.31C509.978,182.31 510.271,182.175 510.508,181.907C510.744,181.637 510.862,181.216 510.862,180.64C510.862,180.09 510.741,179.676 510.497,179.398C510.254,179.12 509.959,178.98 509.616,178.98C509.278,178.98 508.991,179.117 508.753,179.392C508.516,179.666 508.398,180.075 508.398,180.616" style="fill:rgb(74,77,46);fill-rule:nonzero;"/>
                <path d="M480.406,167.357L480.406,161.16L481.657,161.16L481.657,167.357L480.406,167.357ZM486.958,167.357L485.855,167.357L485.855,166.698C485.672,166.954 485.456,167.145 485.206,167.271C484.957,167.396 484.705,167.458 484.451,167.458C483.935,167.458 483.493,167.25 483.126,166.835C482.759,166.419 482.574,165.839 482.574,165.096C482.574,164.334 482.753,163.756 483.111,163.36C483.469,162.965 483.922,162.766 484.469,162.766C484.97,162.766 485.404,162.975 485.77,163.392L485.77,161.16L486.958,161.16L486.958,167.357ZM483.788,165.015C483.788,165.494 483.854,165.84 483.987,166.056C484.177,166.364 484.446,166.52 484.789,166.52C485.063,166.52 485.296,166.403 485.487,166.171C485.678,165.939 485.775,165.591 485.775,165.129C485.775,164.614 485.681,164.242 485.496,164.015C485.31,163.789 485.072,163.675 484.78,163.675C484.499,163.675 484.264,163.787 484.074,164.011C483.883,164.235 483.788,164.569 483.788,165.015M490.728,165.929L491.912,166.126C491.759,166.56 491.52,166.891 491.191,167.117C490.863,167.345 490.452,167.458 489.959,167.458C489.178,167.458 488.601,167.204 488.226,166.693C487.93,166.285 487.782,165.768 487.782,165.147C487.782,164.402 487.976,163.819 488.366,163.398C488.754,162.977 489.246,162.766 489.841,162.766C490.508,162.766 491.035,162.987 491.422,163.428C491.807,163.87 491.992,164.545 491.976,165.455L488.999,165.455C489.008,165.807 489.103,166.081 489.286,166.276C489.47,166.473 489.699,166.571 489.972,166.571C490.158,166.571 490.314,166.52 490.441,166.419C490.568,166.317 490.664,166.154 490.728,165.929ZM490.796,164.728C490.787,164.383 490.699,164.122 490.53,163.943C490.361,163.764 490.155,163.675 489.913,163.675C489.653,163.675 489.44,163.77 489.271,163.959C489.102,164.147 489.018,164.404 489.021,164.728L490.796,164.728ZM497.027,167.357L495.84,167.357L495.84,165.066C495.84,164.581 495.814,164.268 495.763,164.125C495.713,163.984 495.629,163.873 495.515,163.793C495.401,163.715 495.264,163.675 495.104,163.675C494.898,163.675 494.713,163.731 494.55,163.844C494.387,163.958 494.274,164.106 494.214,164.292C494.153,164.478 494.123,164.822 494.123,165.324L494.123,167.357L492.935,167.357L492.935,162.868L494.038,162.868L494.038,163.528C494.43,163.02 494.923,162.766 495.518,162.766C495.779,162.766 496.02,162.814 496.236,162.907C496.453,163.002 496.617,163.122 496.729,163.269C496.84,163.417 496.918,163.583 496.961,163.769C497.006,163.955 497.027,164.22 497.027,164.567L497.027,167.357ZM500.289,162.868L500.289,163.815L499.479,163.815L499.479,165.624C499.479,165.991 499.486,166.204 499.502,166.265C499.518,166.325 499.552,166.374 499.607,166.415C499.662,166.454 499.73,166.474 499.808,166.474C499.919,166.474 500.077,166.435 500.287,166.36L500.388,167.28C500.111,167.399 499.799,167.458 499.448,167.458C499.235,167.458 499.041,167.422 498.87,167.351C498.698,167.279 498.573,167.185 498.492,167.071C498.411,166.957 498.356,166.803 498.325,166.608C498.3,166.471 498.287,166.191 498.287,165.771L498.287,163.815L497.741,163.815L497.741,162.868L498.287,162.868L498.287,161.975L499.479,161.283L499.479,162.868L500.289,162.868ZM501.115,162.259L501.115,161.16L502.302,161.16L502.302,162.259L501.115,162.259ZM501.115,167.357L501.115,162.868L502.302,162.868L502.302,167.357L501.115,167.357ZM505.578,162.868L505.578,163.815L504.767,163.815L504.767,165.624C504.767,165.991 504.774,166.204 504.79,166.265C504.806,166.325 504.84,166.374 504.895,166.415C504.95,166.454 505.018,166.474 505.096,166.474C505.207,166.474 505.365,166.435 505.575,166.36L505.676,167.28C505.399,167.399 505.087,167.458 504.736,167.458C504.523,167.458 504.329,167.422 504.158,167.351C503.986,167.279 503.861,167.185 503.78,167.071C503.699,166.957 503.644,166.803 503.613,166.608C503.588,166.471 503.575,166.191 503.575,165.771L503.575,163.815L503.029,163.815L503.029,162.868L503.575,162.868L503.575,161.975L504.767,161.283L504.767,162.868L505.578,162.868ZM505.84,162.868L507.104,162.868L508.177,166.056L509.226,162.868L510.456,162.868L508.872,167.188L508.587,167.97C508.484,168.231 508.384,168.432 508.29,168.57C508.195,168.709 508.087,168.82 507.964,168.907C507.842,168.992 507.691,169.059 507.512,169.107C507.333,169.155 507.131,169.179 506.905,169.179C506.677,169.179 506.453,169.155 506.233,169.107L506.127,168.176C506.313,168.214 506.481,168.231 506.631,168.231C506.906,168.231 507.111,168.15 507.244,167.989C507.375,167.827 507.478,167.621 507.548,167.37L505.84,162.868Z" style="fill:rgb(46,77,46);fill-rule:nonzero;"/>
                <path d="M585.434,225.361L585.434,259.99M507.518,225.361L585.434,225.361M507.518,204.584L507.518,225.361M510.981,204.584L507.518,198.523L504.055,204.584L510.981,204.584Z" style="fill:none;stroke-width:0.87px;stroke:rgb(92,122,92);"/>
                <path d="M489.337,204.584L485.874,198.523L482.412,204.584L489.337,204.584ZM485.874,204.584L485.874,225.361M485.874,225.361L441.723,225.361M441.723,225.361L441.723,273.842" style="fill:none;stroke-width:0.87px;stroke:rgb(92,122,92);"/>
                <path d="M439.125,332.711L441.723,328.383M441.723,328.383L444.319,332.711M470.291,383.789L441.723,383.789M441.723,383.789L441.723,328.383" style="fill:none;stroke-width:0.87px;stroke:rgb(92,122,92);"/>
            </g>
        </g>
        <path d="M386.087,270.63L472.867,270.63L472.867,151.595L527.005,151.595L527.005,270.63L504.778,270.63L504.778,334.222L386.087,334.222L386.087,270.63Z" style="fill:none;stroke-width:1.5px;stroke-linejoin:round;stroke-dasharray:3,1.5;stroke:rgb(51,153,102);"/>
        <path d="M106.308,236.574L106.308,238.074L106.269,238.073L106.232,238.07L106.194,238.066L106.157,238.059L106.121,238.051L106.085,238.041L106.05,238.029L106.016,238.015L105.983,238L105.951,237.984L105.919,237.966L105.889,237.946L105.859,237.925L105.831,237.903L105.804,237.879L105.778,237.855L105.753,237.829L105.729,237.801L105.707,237.773L105.686,237.743L105.667,237.713L105.648,237.682L105.632,237.649L105.617,237.616L105.604,237.582L105.592,237.547L105.582,237.512L105.573,237.475L105.567,237.438L105.562,237.401L105.559,237.363L105.558,237.324L105.559,237.286L105.562,237.248L105.567,237.21L105.573,237.173L105.582,237.137L105.592,237.101L105.604,237.066L105.617,237.032L105.632,236.999L105.648,236.967L105.667,236.935L105.686,236.905L105.707,236.876L105.729,236.847L105.753,236.82L105.778,236.794L105.804,236.769L105.831,236.745L105.859,236.723L105.889,236.702L105.919,236.683L105.951,236.665L105.983,236.648L106.016,236.633L106.05,236.62L106.085,236.608L106.121,236.598L106.157,236.59L106.194,236.583L106.232,236.578L106.269,236.575L106.308,236.574ZM361.665,238.074L106.308,238.074L106.308,236.574L361.665,236.574L362.415,237.324L361.665,238.074ZM361.665,236.574L362.415,236.574L362.415,237.324L361.665,236.574ZM360.915,318.461L360.915,237.324L362.415,237.324L362.415,318.461L361.665,319.211L360.915,318.461ZM361.665,319.211L360.915,319.211L360.915,318.461L361.665,319.211ZM387.888,319.211L361.665,319.211L361.665,317.711L387.888,317.711L387.888,319.211ZM393.165,318.461L382.664,322.961L382.801,322.68L382.928,322.398L383.047,322.117L383.156,321.836L383.257,321.555L383.35,321.273L383.433,320.992L383.508,320.711L383.574,320.43L383.631,320.148L383.679,319.867L383.719,319.586L383.75,319.305L383.772,319.023L383.785,318.742L383.789,318.461L383.785,318.18L383.772,317.898L383.75,317.617L383.719,317.336L383.679,317.055L383.631,316.773L383.574,316.492L383.508,316.211L383.433,315.93L383.35,315.648L383.257,315.367L383.156,315.086L383.047,314.804L382.928,314.523L382.801,314.242L382.664,313.961L393.165,318.461ZM387.888,319.211L387.888,317.711L387.926,317.712L387.964,317.715L388.002,317.719L388.039,317.726L388.075,317.734L388.111,317.745L388.146,317.756L388.18,317.77L388.213,317.785L388.245,317.801L388.276,317.819L388.307,317.839L388.336,317.86L388.365,317.882L388.392,317.906L388.418,317.931L388.443,317.957L388.466,317.984L388.488,318.012L388.509,318.042L388.529,318.072L388.547,318.103L388.564,318.136L388.579,318.169L388.592,318.203L388.604,318.238L388.614,318.274L388.622,318.31L388.629,318.347L388.634,318.384L388.637,318.422L388.638,318.461L388.637,318.499L388.634,318.537L388.629,318.575L388.622,318.612L388.614,318.648L388.604,318.684L388.592,318.719L388.579,318.753L388.564,318.786L388.547,318.818L388.529,318.85L388.509,318.88L388.488,318.91L388.466,318.938L388.443,318.965L388.418,318.991L388.392,319.016L388.365,319.04L388.336,319.062L388.307,319.083L388.276,319.102L388.245,319.121L388.213,319.137L388.18,319.152L388.146,319.165L388.111,319.177L388.075,319.187L388.039,319.196L388.002,319.202L387.964,319.207L387.926,319.21L387.888,319.211Z" style="fill:rgb(51,153,102);fill-rule:nonzero;"/>
        <path d="M111.741,205.951L111.741,207.451L111.703,207.45L111.665,207.447L111.627,207.443L111.59,207.436L111.554,207.428L111.518,207.417L111.483,207.405L111.449,207.392L111.416,207.377L111.384,207.361L111.352,207.342L111.322,207.323L111.292,207.302L111.264,207.28L111.237,207.256L111.211,207.231L111.186,207.205L111.162,207.178L111.14,207.15L111.119,207.12L111.1,207.09L111.082,207.058L111.065,207.026L111.05,206.993L111.037,206.959L111.025,206.924L111.015,206.888L111.006,206.852L111,206.815L110.995,206.778L110.992,206.74L110.991,206.701L110.992,206.662L110.995,206.624L111,206.587L111.006,206.55L111.015,206.514L111.025,206.478L111.037,206.443L111.05,206.409L111.065,206.376L111.082,206.344L111.1,206.312L111.119,206.282L111.14,206.252L111.162,206.224L111.186,206.197L111.211,206.171L111.237,206.146L111.264,206.122L111.292,206.1L111.322,206.079L111.352,206.06L111.384,206.041L111.416,206.025L111.449,206.01L111.483,205.997L111.518,205.985L111.554,205.974L111.59,205.966L111.627,205.959L111.665,205.955L111.703,205.952L111.741,205.951ZM373.025,207.451L111.741,207.451L111.741,205.951L373.025,205.951L373.775,206.701L373.025,207.451ZM373.025,205.951L373.775,205.951L373.775,206.701L373.025,205.951ZM372.275,297.583L372.275,206.701L373.775,206.701L373.775,297.583L373.025,298.333L372.275,297.583ZM373.025,298.333L372.275,298.333L372.275,297.583L373.025,298.333ZM387.888,298.333L373.025,298.333L373.025,296.833L387.888,296.833L387.888,298.333ZM393.165,297.583L382.664,302.083L382.801,301.802L382.928,301.52L383.047,301.239L383.156,300.958L383.257,300.677L383.35,300.395L383.433,300.114L383.508,299.833L383.574,299.552L383.631,299.27L383.679,298.989L383.719,298.708L383.75,298.426L383.772,298.145L383.785,297.864L383.789,297.583L383.785,297.301L383.772,297.02L383.75,296.739L383.719,296.458L383.679,296.176L383.631,295.895L383.574,295.614L383.508,295.332L383.433,295.051L383.35,294.77L383.257,294.489L383.156,294.207L383.047,293.926L382.928,293.645L382.801,293.363L382.664,293.082L393.165,297.583ZM387.888,298.333L387.888,296.833L387.926,296.833L387.964,296.837L388.002,296.841L388.039,296.848L388.075,296.856L388.111,296.866L388.146,296.878L388.18,296.891L388.213,296.907L388.245,296.923L388.276,296.941L388.307,296.961L388.336,296.982L388.365,297.004L388.392,297.028L388.418,297.052L388.443,297.078L388.466,297.106L388.488,297.134L388.509,297.163L388.529,297.194L388.547,297.225L388.564,297.257L388.579,297.291L388.592,297.325L388.604,297.359L388.614,297.395L388.622,297.431L388.629,297.468L388.634,297.506L388.637,297.544L388.638,297.583L388.637,297.621L388.634,297.659L388.629,297.697L388.622,297.734L388.614,297.77L388.604,297.806L388.592,297.841L388.579,297.875L388.564,297.908L388.547,297.94L388.529,297.971L388.509,298.002L388.488,298.031L388.466,298.06L388.443,298.087L388.418,298.113L388.392,298.138L388.365,298.161L388.336,298.184L388.307,298.205L388.276,298.224L388.245,298.242L388.213,298.259L388.18,298.274L388.146,298.287L388.111,298.299L388.075,298.309L388.039,298.317L388.002,298.324L387.964,298.329L387.926,298.332L387.888,298.333Z" style="fill:rgb(51,153,102);fill-rule:nonzero;"/>
        <path d="M108.284,215.829L108.284,217.33L108.245,217.329L108.207,217.326L108.17,217.321L108.133,217.314L108.096,217.306L108.061,217.296L108.026,217.284L107.992,217.271L107.959,217.256L107.926,217.239L107.895,217.221L107.865,217.201L107.835,217.18L107.807,217.158L107.78,217.134L107.753,217.11L107.729,217.084L107.705,217.057L107.683,217.028L107.662,216.999L107.642,216.968L107.624,216.937L107.608,216.905L107.593,216.871L107.579,216.837L107.567,216.803L107.557,216.767L107.549,216.731L107.542,216.694L107.538,216.656L107.535,216.618L107.534,216.579L107.535,216.541L107.538,216.503L107.542,216.465L107.549,216.428L107.557,216.392L107.567,216.356L107.579,216.322L107.593,216.287L107.608,216.254L107.624,216.222L107.642,216.191L107.662,216.16L107.683,216.131L107.705,216.102L107.729,216.075L107.753,216.049L107.78,216.024L107.807,216.001L107.835,215.979L107.865,215.958L107.895,215.938L107.926,215.92L107.959,215.903L107.992,215.888L108.026,215.875L108.061,215.863L108.096,215.853L108.133,215.845L108.17,215.838L108.207,215.833L108.245,215.83L108.284,215.829ZM367.098,217.33L108.284,217.33L108.284,215.829L367.098,215.829L367.848,216.579L367.098,217.33ZM367.098,215.829L367.848,215.829L367.848,216.579L367.098,215.829ZM366.348,307.96L366.348,216.579L367.848,216.579L367.848,307.96L367.098,308.71L366.348,307.96ZM367.098,308.71L366.348,308.71L366.348,307.96L367.098,308.71ZM387.888,308.71L367.098,308.71L367.098,307.21L387.888,307.21L387.888,308.71ZM393.165,307.96L382.664,312.461L382.801,312.179L382.928,311.898L383.047,311.617L383.156,311.335L383.257,311.054L383.35,310.773L383.433,310.492L383.508,310.21L383.574,309.929L383.631,309.648L383.679,309.366L383.719,309.085L383.75,308.804L383.772,308.523L383.785,308.241L383.789,307.96L383.785,307.679L383.772,307.398L383.75,307.116L383.719,306.835L383.679,306.554L383.631,306.273L383.574,305.991L383.508,305.71L383.433,305.429L383.35,305.148L383.257,304.866L383.156,304.585L383.047,304.304L382.928,304.023L382.801,303.741L382.664,303.46L393.165,307.96ZM387.888,308.71L387.888,307.21L387.926,307.211L387.964,307.214L388.002,307.219L388.039,307.225L388.075,307.234L388.111,307.244L388.146,307.256L388.18,307.269L388.213,307.284L388.245,307.301L388.276,307.319L388.307,307.338L388.336,307.359L388.365,307.381L388.392,307.405L388.418,307.43L388.443,307.456L388.466,307.483L388.488,307.511L388.509,307.541L388.529,307.571L388.547,307.603L388.564,307.635L388.579,307.668L388.592,307.702L388.604,307.737L388.614,307.773L388.622,307.809L388.629,307.846L388.634,307.884L388.637,307.922L388.638,307.96L388.637,307.999L388.634,308.037L388.629,308.074L388.622,308.111L388.614,308.148L388.604,308.183L388.592,308.218L388.579,308.252L388.564,308.285L388.547,308.318L388.529,308.349L388.509,308.379L388.488,308.409L388.466,308.437L388.443,308.465L388.418,308.491L388.392,308.515L388.365,308.539L388.336,308.561L388.307,308.582L388.276,308.602L388.245,308.62L388.213,308.636L388.18,308.651L388.146,308.665L388.111,308.677L388.075,308.687L388.039,308.695L388.002,308.702L387.964,308.706L387.926,308.709L387.888,308.71Z" style="fill:rgb(51,153,102);fill-rule:nonzero;"/>
        <path d="M93.96,195.822L93.96,197.322L93.921,197.321L93.884,197.318L93.846,197.313L93.809,197.306L93.773,197.298L93.737,197.288L93.702,197.276L93.668,197.263L93.635,197.248L93.603,197.231L93.571,197.213L93.541,197.194L93.511,197.173L93.483,197.151L93.456,197.127L93.43,197.102L93.405,197.076L93.381,197.049L93.359,197.02L93.338,196.991L93.319,196.961L93.3,196.929L93.284,196.897L93.269,196.864L93.256,196.83L93.244,196.795L93.234,196.759L93.225,196.723L93.219,196.686L93.214,196.648L93.211,196.61L93.21,196.572L93.211,196.533L93.214,196.495L93.219,196.457L93.225,196.421L93.234,196.384L93.244,196.349L93.256,196.314L93.269,196.28L93.284,196.247L93.3,196.214L93.319,196.183L93.338,196.152L93.359,196.123L93.381,196.095L93.405,196.067L93.43,196.041L93.456,196.017L93.483,195.993L93.511,195.971L93.541,195.95L93.571,195.93L93.603,195.912L93.635,195.896L93.668,195.881L93.702,195.867L93.737,195.855L93.773,195.845L93.809,195.837L93.846,195.83L93.884,195.826L93.921,195.822L93.96,195.822ZM291.034,197.322L93.96,197.322L93.96,195.822L291.034,195.822L291.784,196.572L291.034,197.322ZM291.784,196.572L291.784,197.322L291.034,197.322L291.784,196.572ZM291.784,178.179L291.784,196.572L290.284,196.572L290.284,178.179L291.034,177.429L291.784,178.179ZM290.284,178.179L290.284,177.429L291.034,177.429L290.284,178.179ZM476.759,178.929L291.034,178.929L291.034,177.429L476.759,177.429L476.759,178.929ZM482.036,178.179L471.536,182.679L471.672,182.398L471.799,182.116L471.918,181.835L472.028,181.554L472.129,181.273L472.221,180.991L472.305,180.71L472.38,180.429L472.445,180.148L472.503,179.866L472.551,179.585L472.59,179.304L472.621,179.023L472.643,178.741L472.656,178.46L472.661,178.179L472.656,177.898L472.643,177.616L472.621,177.335L472.59,177.054L472.551,176.773L472.503,176.491L472.445,176.21L472.38,175.929L472.305,175.647L472.221,175.366L472.129,175.085L472.028,174.804L471.918,174.522L471.799,174.241L471.672,173.96L471.536,173.679L482.036,178.179ZM476.759,178.929L476.759,177.429L476.798,177.43L476.836,177.433L476.873,177.437L476.91,177.444L476.946,177.452L476.982,177.462L477.017,177.474L477.051,177.488L477.084,177.503L477.117,177.519L477.148,177.537L477.178,177.557L477.208,177.578L477.236,177.6L477.263,177.624L477.289,177.648L477.314,177.675L477.338,177.702L477.36,177.73L477.381,177.76L477.4,177.79L477.419,177.821L477.435,177.854L477.45,177.887L477.463,177.921L477.475,177.956L477.486,177.991L477.494,178.028L477.501,178.065L477.505,178.102L477.508,178.14L477.509,178.179L477.508,178.217L477.505,178.255L477.501,178.293L477.494,178.33L477.486,178.366L477.475,178.402L477.463,178.437L477.45,178.471L477.435,178.504L477.419,178.536L477.4,178.568L477.381,178.598L477.36,178.628L477.338,178.656L477.314,178.683L477.289,178.709L477.263,178.734L477.236,178.758L477.208,178.78L477.178,178.801L477.148,178.82L477.117,178.838L477.084,178.855L477.051,178.87L477.017,178.883L476.982,178.895L476.946,178.905L476.91,178.914L476.873,178.92L476.836,178.925L476.798,178.928L476.759,178.929Z" style="fill:rgb(51,153,102);fill-rule:nonzero;"/>
    </g>
</svg>
