<?xml version="1.0" encoding="UTF-8" standalone="no"?><!DOCTYPE svg PUBLIC "-//W3C//DTD SVG 1.1//EN" "http://www.w3.org/Graphics/SVG/1.1/DTD/svg11.dtd"><svg width="100%" height="100%" viewBox="0 0 472 312" version="1.1" xmlns="http://www.w3.org/2000/svg" xmlns:xlink="http://www.w3.org/1999/xlink" xml:space="preserve" xmlns:serif="http://www.serif.com/" style="fill-rule:evenodd;clip-rule:evenodd;stroke-linejoin:round;stroke-miterlimit:1.41421;"><g><path d="M235.457,102.225c5.329,-22.176 14.415,-41.607 27.256,-58.294c22.314,-28.997 51.241,-43.639 86.78,-43.927c35.389,-0.286 64.55,14.01 87.482,42.889c22.932,28.879 34.581,65.858 34.945,110.938c0.366,45.245 -10.682,82.449 -33.145,111.613c-22.462,29.163 -51.388,43.888 -86.778,44.174c-35.091,0.284 -64.139,-14.013 -87.146,-42.891c-13.206,-16.577 -22.682,-35.822 -28.427,-57.736c-5.367,22.098 -14.512,41.535 -27.433,58.311c-22.463,29.164 -51.389,43.888 -86.779,44.175c-35.09,0.284 -64.139,-14.014 -87.146,-42.892c-23.007,-28.878 -34.692,-65.857 -35.057,-110.937c-0.369,-45.575 10.604,-82.861 32.919,-111.858c22.315,-28.998 51.241,-43.64 86.78,-43.927c35.39,-0.286 64.55,14.01 87.483,42.889c13.11,16.51 22.532,35.668 28.266,57.473Z" style="fill:#fff;fill-opacity:0.298039;"/><path d="M235.431,109.522c4.617,-19.215 12.489,-36.051 23.614,-50.508c19.335,-25.124 44.398,-37.811 75.189,-38.06c30.663,-0.248 55.929,12.139 75.798,37.16c19.869,25.022 29.961,57.062 30.277,96.12c0.317,39.202 -9.255,71.437 -28.718,96.705c-19.462,25.268 -44.524,38.026 -75.187,38.274c-30.404,0.246 -55.572,-12.142 -75.506,-37.163c-11.442,-14.362 -19.652,-31.036 -24.63,-50.024c-4.65,19.147 -12.573,35.988 -23.769,50.523c-19.462,25.268 -44.525,38.026 -75.187,38.274c-30.404,0.246 -55.573,-12.141 -75.506,-37.162c-19.934,-25.021 -30.059,-57.061 -30.375,-96.119c-0.319,-39.488 9.188,-71.794 28.522,-96.918c19.334,-25.124 44.397,-37.81 75.189,-38.059c30.663,-0.248 55.928,12.138 75.797,37.16c11.36,14.305 19.524,30.904 24.492,49.797Z" style="fill:#fff;fill-opacity:0.396078;"/><path d="M235.236,122.674c3.568,-14.337 9.555,-26.876 17.96,-37.618c14.607,-18.666 33.421,-27.999 56.443,-27.999c22.926,0 41.74,9.413 56.443,28.24c14.703,18.826 22.055,42.841 22.055,72.044c0,29.31 -7.352,53.351 -22.055,72.124c-14.703,18.773 -33.517,28.16 -56.443,28.16c-22.732,0 -41.473,-9.413 -56.225,-28.24c-8.467,-10.807 -14.505,-23.322 -18.111,-37.548c-3.592,14.286 -9.618,26.829 -18.076,37.628c-14.703,18.773 -33.517,28.16 -56.443,28.16c-22.731,0 -41.473,-9.413 -56.225,-28.24c-14.751,-18.827 -22.127,-42.841 -22.127,-72.044c0,-29.524 7.303,-53.619 21.91,-72.285c14.606,-18.666 33.42,-27.999 56.442,-27.999c22.926,0 41.74,9.413 56.443,28.24c8.406,10.763 14.409,23.222 18.009,37.377Z" style="fill:#fff;fill-opacity:0.905882;"/><path d="M112.286,214.928c-1.21,0 -2.06,-0.309 -2.549,-0.926c-0.49,-0.617 -0.735,-1.807 -0.735,-3.571l0,-7.229c-3.456,4.408 -7.777,7.832 -12.962,10.271c-5.185,2.439 -10.802,3.659 -16.851,3.659c-10.888,0 -20.005,-3.953 -27.35,-11.858c-7.345,-7.905 -11.018,-17.735 -11.018,-29.49c0,-12.166 3.918,-22.29 11.753,-30.371c7.835,-8.082 17.599,-12.122 29.294,-12.122c5.934,0 11.263,1.072 15.987,3.218c4.724,2.145 8.785,5.304 12.184,9.477l0,-33.766l-4.58,0c-5.012,0 -8.252,-0.455 -9.721,-1.366c-1.469,-0.911 -2.204,-2.572 -2.204,-4.981c0,-2.116 0.591,-3.703 1.772,-4.761c1.181,-1.058 2.894,-1.587 5.141,-1.587l17.715,0c1.728,0 2.981,0.294 3.759,0.882c0.778,0.587 1.167,1.498 1.167,2.733l0,99.357l3.888,0c2.823,0 4.868,0.485 6.136,1.455c1.267,0.969 1.901,2.512 1.901,4.628c0,1.998 -0.547,3.556 -1.642,4.673c-1.095,1.116 -2.564,1.675 -4.407,1.675l-16.678,0Zm-56.601,-39.585c0,8.111 2.563,14.753 7.691,19.925c5.127,5.172 11.637,7.758 19.529,7.758c7.95,0 14.489,-2.689 19.616,-8.067c5.127,-5.378 7.691,-12.21 7.691,-20.497c0,-8.17 -2.549,-14.899 -7.648,-20.189c-5.098,-5.29 -11.651,-7.934 -19.659,-7.934c-8.123,0 -14.69,2.674 -19.702,8.022c-5.012,5.349 -7.518,12.343 -7.518,20.982Z" style="fill-rule:nonzero;"/><path d="M235.122,138.845c2.084,-8.376 5.582,-15.703 10.494,-21.979c8.534,-10.906 19.526,-16.359 32.978,-16.359c13.394,0 24.387,5.5 32.978,16.5c8.591,11 12.886,25.031 12.886,42.093c0,17.125 -4.295,31.172 -12.886,42.141c-8.591,10.969 -19.584,16.453 -32.978,16.453c-13.282,0 -24.232,-5.5 -32.851,-16.5c-4.948,-6.314 -8.475,-13.627 -10.582,-21.938c-2.099,8.347 -5.62,15.675 -10.562,21.985c-8.59,10.969 -19.583,16.453 -32.978,16.453c-13.281,0 -24.232,-5.5 -32.851,-16.5c-8.619,-11 -12.928,-25.031 -12.928,-42.094c0,-17.25 4.267,-31.328 12.801,-42.234c8.534,-10.906 19.527,-16.359 32.978,-16.359c13.395,0 24.388,5.5 32.978,16.5c4.912,6.289 8.419,13.568 10.523,21.838Zm-43.501,65.537c9.495,0 16.97,-4.016 22.424,-12.047c5.454,-8.031 8.181,-19.11 8.181,-33.235c0,-14.125 -2.727,-25.203 -8.181,-33.234c-5.454,-8.031 -12.929,-12.047 -22.424,-12.047c-9.551,0 -17.026,3.985 -22.423,11.953c-5.398,7.969 -8.096,19.078 -8.096,33.328c0,14.125 2.727,25.204 8.181,33.235c5.454,8.031 12.9,12.047 22.338,12.047Zm86.973,0c9.495,0 16.969,-4.016 22.423,-12.047c5.454,-8.031 8.181,-19.11 8.181,-33.235c0,-14.125 -2.727,-25.203 -8.181,-33.234c-5.454,-8.031 -12.928,-12.047 -22.423,-12.047c-9.552,0 -17.026,3.985 -22.424,11.953c-5.397,7.969 -8.096,19.078 -8.096,33.328c0,14.125 2.727,25.204 8.181,33.235c5.454,8.031 12.9,12.047 22.339,12.047Z"/><path d="M349.596,173.309l44.036,29.209c1.763,1.209 3.024,2.405 3.785,3.586c0.761,1.181 1.142,2.52 1.142,4.018c0,1.728 -0.351,3.111 -1.052,4.148c-0.701,1.037 -1.672,1.556 -2.913,1.556c-0.561,0 -1.182,-0.144 -1.863,-0.433c-0.681,-0.288 -1.642,-0.864 -2.883,-1.728l-47.762,-32.06c-0.16,-0.058 -0.36,-0.173 -0.6,-0.346c-3.685,-2.419 -5.528,-5.069 -5.528,-7.95c0,-2.88 1.803,-5.473 5.407,-7.777c0.321,-0.231 0.561,-0.404 0.721,-0.519l47.762,-31.541c1.081,-0.749 2.002,-1.282 2.763,-1.599c0.761,-0.317 1.422,-0.475 1.983,-0.475c1.241,0 2.212,0.489 2.913,1.469c0.701,0.979 1.052,2.304 1.052,3.975c0,1.555 -0.381,2.923 -1.142,4.104c-0.761,1.181 -2.022,2.348 -3.785,3.5l-44.036,28.863Z" style="fill-rule:nonzero;"/></g></svg>